<?xml version="1.0" encoding="UTF-8"?>
<svg width="205px" height="185px" viewBox="0 0 205 185" version="1.1" xmlns="http://www.w3.org/2000/svg" xmlns:xlink="http://www.w3.org/1999/xlink">
    <!-- Generator: Sketch 52.5 (67469) - http://www.bohemiancoding.com/sketch -->
    <title>Combined Shape</title>
    <desc>Created with Sketch.</desc>
    <g id="Page-1" stroke="none" stroke-width="1" fill="none" fill-rule="evenodd">
        <g id="LAnding-page-Copy-8-*-Copy" transform="translate(-583.000000, -2529.000000)" fill="#374E69">
            <g id="how" transform="translate(150.000000, 2092.000000)">
                <g id="Review-Framework" transform="translate(433.000000, 406.000000)">
                    <path d="M137,64.8667916 C138.650106,65.5072409 140.264182,66.3152791 141.820097,67.2959862 C154.879464,75.5274202 158.8898,92.901554 150.760137,106.026471 C147.401573,111.447831 142.508587,115.308816 137,117.397468 L137,121.658784 C143.839132,119.439037 149.987022,114.8692 154.144089,108.157446 C163.483313,93.0830587 158.852052,73.3030761 143.925369,63.895309 C140.680044,61.8496105 137.214392,60.461105 133.681653,59.6943648 L135.991247,62.0958984 C136.02045,62.1266113 136.045687,62.1598535 136.073808,62.1912891 C136.117792,62.2404297 136.162137,62.2888477 136.203597,62.3405176 C136.23965,62.3856836 136.272818,62.4322949 136.306708,62.4789063 C136.342039,62.5273242 136.377732,62.5757422 136.410539,62.6259668 C136.443708,62.6765527 136.473632,62.728584 136.503916,62.7802539 C136.533118,62.8297559 136.562321,62.8792578 136.589,62.9305664 C136.616761,62.9836816 136.641637,63.0375195 136.666513,63.0917187 C136.691029,63.144834 136.715184,63.1975879 136.737176,63.2521484 C136.758808,63.3059863 136.777916,63.3605469 136.796663,63.4151074 C136.816132,63.4721973 136.835961,63.5289258 136.852905,63.5870996 C136.868768,63.6420215 136.882108,63.6973047 136.895447,63.7529492 C136.909508,63.8118457 136.923929,63.8700195 136.935105,63.93 C136.946282,63.9892578 136.953853,64.0485156 136.962145,64.1081348 C136.969716,64.1652246 136.978368,64.2215918 136.983416,64.2794043 C136.989545,64.3455273 136.991347,64.4120117 136.993511,64.4784961 C136.995313,64.5204102 137,64.5612402 137,64.6035156 L137,64.8667916 Z M137,69.2173691 L137,113.049404 C141.140172,111.165305 144.789534,108.069077 147.376414,103.893027 C154.344931,92.6436198 150.907634,77.7515892 139.713891,70.6960744 C138.82931,70.1384633 137.922836,69.6459887 137,69.2173691 Z M137,125.854832 L137,205.160156 C137,211.137246 132.148037,216 126.184211,216 L10.8157895,216 C4.85196316,216 0,211.137246 0,205.160156 L0,41.8398438 C0,35.8627539 4.85196316,31 10.8157895,31 L104.552632,31 C104.563808,31 104.574263,31.0014453 104.586161,31.0018066 C104.653939,31.002168 104.721358,31.0075879 104.788776,31.0119238 C104.841413,31.0155371 104.894411,31.0166211 104.946326,31.0224023 C105.004371,31.0285449 105.061695,31.0397461 105.119379,31.0487793 C105.178866,31.0581738 105.239074,31.0657617 105.297839,31.0780469 C105.344708,31.0878027 105.390495,31.1022559 105.437003,31.1138184 C105.504421,31.1308008 105.5722,31.1463379 105.637816,31.1669336 C105.682882,31.1810254 105.726505,31.1998145 105.77085,31.2157129 C105.835745,31.2391992 105.901361,31.2608789 105.964453,31.2876172 C106.021055,31.3118262 106.076216,31.3414551 106.131737,31.3685547 C106.180408,31.3924023 106.230161,31.4137207 106.27775,31.4397363 C106.335434,31.4711719 106.391316,31.5080273 106.447558,31.5430762 C106.490461,31.5698145 106.535166,31.5943848 106.576987,31.6229297 C106.626018,31.6561719 106.672526,31.6941113 106.720116,31.7302441 C106.767345,31.7660156 106.815655,31.7999805 106.860721,31.8379199 C106.900739,31.8715234 106.938955,31.9087402 106.977892,31.9445117 C107.027284,31.9896777 107.077397,32.0344824 107.124626,32.0825391 C107.132558,32.0908496 107.141211,32.0973535 107.149142,32.1056641 L129.197386,55.0315916 C134.979787,55.3935156 140.76386,57.1749337 146.031575,60.4952207 C160.972278,69.9118248 166.89724,88.7467776 160.265226,104.923528 L165.762845,108.388072 L166.815366,106.688967 C167.280826,105.937567 168.03665,105.807342 168.055483,105.798969 C168.570337,105.680106 169.112353,105.772301 169.560242,106.055263 L199.808926,125.123234 C204.487234,128.069401 205.91408,134.256669 203.001923,138.953624 C200.09234,143.654813 193.953752,145.069603 189.278882,142.121032 L159.029388,123.056468 C158.094706,122.46733 157.809298,121.227632 158.390541,120.28932 L159.443063,118.590215 L153.945268,115.124906 C149.300639,120.414103 143.384063,124.032362 137,125.854832 Z M109.070348,59.7770487 C112.421333,57.8331847 116.05391,56.4584507 119.813507,55.6884665 L108.157895,43.5687988 L108.157895,57.3769531 C108.157895,58.2973002 108.503009,59.138386 109.070348,59.7770487 Z M115.86368,60.9902344 L124.912274,60.9902344 L123.194816,59.2043985 C120.690102,59.5061601 118.227927,60.1057071 115.86368,60.9902344 Z M129.789474,127.131962 C124.845899,127.491566 119.806987,126.823887 115.007836,125.076918 C114.423449,126.282368 113.18997,127.113281 111.763158,127.113281 L82.9210526,127.113281 C80.9302263,127.113281 79.3157895,125.495615 79.3157895,123.5 C79.3157895,121.504385 80.9302263,119.886719 82.9210526,119.886719 L105.506359,119.886719 C90.7797015,108.70763 86.7106744,87.9038634 96.6238047,71.9019032 C98.4871966,68.8936081 100.718239,66.2590251 103.221894,64.0200543 C101.796879,62.1838688 100.947368,59.8779633 100.947368,57.3769531 L100.947368,38.2265625 L10.8157895,38.2265625 C8.82784737,38.2265625 7.21052632,39.8474805 7.21052632,41.8398438 L7.21052632,205.160156 C7.21052632,207.15252 8.82784737,208.773438 10.8157895,208.773438 L126.184211,208.773438 C128.172153,208.773438 129.789474,207.15252 129.789474,205.160156 L129.789474,127.131962 Z M129.789474,123.103538 L129.789474,119.076697 C123.889995,119.640055 117.758663,118.319272 112.331113,114.89851 C99.2729105,106.665197 95.2616396,89.2904745 103.389204,76.1668471 C105.391995,72.9337043 107.941473,70.2557571 110.842194,68.1778644 C109.174989,68.0363127 107.614323,67.5140861 106.247302,66.6984839 C103.869221,68.7583368 101.756087,71.2113679 100.007351,74.0345823 C90.6933215,89.069346 95.265739,108.867743 110.226071,118.29672 C116.264297,122.102934 123.133439,123.649462 129.789474,123.103538 Z M129.789474,115.039411 L129.789474,68.2167969 L119.522896,68.2167969 C114.412,69.9090492 109.84226,73.343771 106.772574,78.298762 C99.8065082,89.5484088 103.24474,104.441028 114.437319,111.498422 C119.209004,114.505779 124.614654,115.619393 129.789474,115.039411 Z M68.5,119.886719 C70.4901053,119.886719 72.1052632,121.505469 72.1052632,123.5 C72.1052632,125.494531 70.4901053,127.113281 68.5,127.113281 C66.5098947,127.113281 64.8947368,125.494531 64.8947368,123.5 C64.8947368,121.505469 66.5098947,119.886719 68.5,119.886719 Z M68.5,148.792969 C70.4901053,148.792969 72.1052632,150.411719 72.1052632,152.40625 C72.1052632,154.400781 70.4901053,156.019531 68.5,156.019531 C66.5098947,156.019531 64.8947368,154.400781 64.8947368,152.40625 C64.8947368,150.411719 66.5098947,148.792969 68.5,148.792969 Z M68.5,178.783203 C70.4901053,178.783203 72.1052632,180.401953 72.1052632,182.396484 C72.1052632,184.391016 70.4901053,186.009766 68.5,186.009766 C66.5098947,186.009766 64.8947368,184.391016 64.8947368,182.396484 C64.8947368,180.401953 66.5098947,178.783203 68.5,178.783203 Z M49.4177026,113.718125 C50.8255579,115.129473 50.8255579,117.417402 49.4177026,118.828389 L34.99665,133.281514 C34.2925421,133.987188 33.3703158,134.339844 32.4473684,134.339844 C31.5244211,134.339844 30.6021947,133.987188 29.8977263,133.281875 L22.6872,126.055313 C21.2793447,124.643965 21.2793447,122.356035 22.6872,120.945049 C24.0957763,119.534063 26.3779079,119.534063 27.7861237,120.945049 L32.4473684,125.61666 L44.3191395,113.718486 C45.7273553,112.307139 48.0094868,112.307139 49.4177026,113.718125 Z M49.4177026,142.624375 C50.8255579,144.035723 50.8255579,146.323652 49.4177026,147.734639 L34.99665,162.187764 C34.2925421,162.893437 33.3703158,163.246094 32.4473684,163.246094 C31.5244211,163.246094 30.6021947,162.893437 29.8977263,162.188125 L22.6872,154.961562 C21.2793447,153.550215 21.2793447,151.262285 22.6872,149.851299 C24.0957763,148.440313 26.3779079,148.440313 27.7861237,149.851299 L32.4473684,154.52291 L44.3191395,142.624736 C45.7273553,141.213389 48.0094868,141.213389 49.4177026,142.624375 Z M111.763158,148.792969 C113.753984,148.792969 115.368421,150.410635 115.368421,152.40625 C115.368421,154.401865 113.753984,156.019531 111.763158,156.019531 L82.9210526,156.019531 C80.9302263,156.019531 79.3157895,154.401865 79.3157895,152.40625 C79.3157895,150.410635 80.9302263,148.792969 82.9210526,148.792969 L111.763158,148.792969 Z M49.4177026,172.614609 C50.8255579,174.025957 50.8255579,176.313887 49.4177026,177.724873 L34.99665,192.177998 C34.2925421,192.883672 33.3703158,193.236328 32.4473684,193.236328 C31.5244211,193.236328 30.6021947,192.883672 29.8977263,192.178359 L22.6872,184.951797 C21.2793447,183.540449 21.2793447,181.25252 22.6872,179.841533 C24.0957763,178.430547 26.3779079,178.430547 27.7861237,179.841533 L32.4473684,184.513145 L44.3191395,172.614971 C45.7273553,171.203623 48.0094868,171.203623 49.4177026,172.614609 Z M111.763158,178.783203 C113.753984,178.783203 115.368421,180.400869 115.368421,182.396484 C115.368421,184.3921 113.753984,186.009766 111.763158,186.009766 L82.9210526,186.009766 C80.9302263,186.009766 79.3157895,184.3921 79.3157895,182.396484 C79.3157895,180.400869 80.9302263,178.783203 82.9210526,178.783203 L111.763158,178.783203 Z M57.4264342,92.167793 C58.1658737,94.0206836 57.2667211,96.1236133 55.4179421,96.8646973 C54.9788211,97.0410254 54.5256395,97.1241309 54.0800289,97.1241309 C52.6491,97.1241309 51.2953237,96.2645312 50.7314605,94.8517383 L45.8697632,82.6699219 L33.4463868,82.6699219 L28.5843289,94.8517383 C27.8441684,96.7046289 25.7459053,97.6061426 23.8978474,96.8646973 C22.0490684,96.123252 21.1499158,94.0206836 21.8889947,92.1674316 L27.6815711,77.6543262 C27.6822921,77.6525195 27.6833737,77.6503516 27.6840947,77.6481836 L36.3104079,56.0349805 C36.8576868,54.6630176 38.1837026,53.7636719 39.6578947,53.7636719 C41.1320868,53.7636719 42.4581026,54.6630176 43.0050211,56.0353418 L51.6313342,77.6485449 C51.6324158,77.6503516 51.6331368,77.6525195 51.6338579,77.6546875 L57.4264342,92.167793 Z M36.3302368,75.4433594 L42.9851921,75.4433594 L39.6578947,67.1060742 L36.3302368,75.4433594 Z M75.7105263,60.9902344 C77.7013526,60.9902344 79.3157895,62.6079004 79.3157895,64.6035156 C79.3157895,66.5991309 77.7013526,68.2167969 75.7105263,68.2167969 L72.1052632,68.2167969 L72.1052632,71.8300781 C72.1052632,73.8256934 70.4908263,75.4433594 68.5,75.4433594 C66.5091737,75.4433594 64.8947368,73.8256934 64.8947368,71.8300781 L64.8947368,68.2167969 L61.2894737,68.2167969 C59.2986474,68.2167969 57.6842105,66.5991309 57.6842105,64.6035156 C57.6842105,62.6079004 59.2986474,60.9902344 61.2894737,60.9902344 L64.8947368,60.9902344 L64.8947368,57.3769531 C64.8947368,55.3813379 66.5091737,53.7636719 68.5,53.7636719 C70.4908263,53.7636719 72.1052632,55.3813379 72.1052632,57.3769531 L72.1052632,60.9902344 L75.7105263,60.9902344 Z M109.777197,95.2361892 C110.848609,94.9888344 111.920512,95.6638114 112.169805,96.743618 C112.419098,97.8234246 111.751745,98.9007454 110.680333,99.1481002 C109.608922,99.3954551 108.536842,98.7197139 108.287549,97.6399073 C108.038256,96.5601008 108.705786,95.4835441 109.777197,95.2361892 Z M161.549269,115.190127 L163.656815,111.788925 L158.533827,108.55986 C158.213073,109.145845 157.878651,109.724521 157.527634,110.290125 C157.177552,110.856318 156.808548,111.413196 156.426281,111.961062 L161.549269,115.190127 Z M169.145809,110.52169 L162.827191,120.721955 L169.594106,124.986549 L175.912143,114.787223 L169.145809,110.52169 Z M199.618376,136.820945 C201.367871,133.999849 200.509038,130.290211 197.703654,128.523911 L179.295689,116.919902 L172.977652,127.119228 L191.386023,138.721533 C194.192289,140.491653 197.873431,139.64099 199.618376,136.820945 Z M122.560041,71.5364596 C123.632211,71.2889297 124.703355,71.9640816 124.952825,73.0446525 C125.202294,74.1252232 124.535523,75.2016048 123.463353,75.4491347 C119.312676,76.4073941 115.789354,78.9345044 113.541359,82.5645339 C112.238248,84.6692202 111.455123,86.9782431 111.214919,89.4283534 C111.10638,90.5287927 110.132425,91.3331947 109.035333,91.220237 C107.939934,91.1076935 107.140498,90.1218955 107.248684,89.0199277 C107.549744,85.9512682 108.528879,83.0625216 110.157989,80.4326191 C112.967674,75.8937449 117.372073,72.7341963 122.560041,71.5364596 Z" id="Combined-Shape"></path>
                </g>
            </g>
        </g>
    </g>
</svg>