<?xml version="1.0" encoding="UTF-8"?>
<svg width="135px" height="163px" viewBox="0 0 135 163" version="1.1" xmlns="http://www.w3.org/2000/svg" xmlns:xlink="http://www.w3.org/1999/xlink">
    <!-- Generator: Sketch 52.5 (67469) - http://www.bohemiancoding.com/sketch -->
    <title>list</title>
    <desc>Created with Sketch.</desc>
    <g id="Page-1" stroke="none" stroke-width="1" fill="none" fill-rule="evenodd">
        <g id="LAnding-page-Copy-8-*-Copy" transform="translate(-585.000000, -3548.000000)">
            <g id="how" transform="translate(150.000000, 2092.000000)">
                <g id="premium-listing" transform="translate(435.000000, 1435.000000)">
                    <g id="list" transform="translate(0.000000, 21.000000)">
                        <path d="M52.71525,38.2734807 L105.75,38.2734807 C106.992,38.2734807 108,37.2671133 108,36.0220994 C108,34.7770856 106.992,33.7707182 105.75,33.7707182 L52.71525,33.7707182 C51.47325,33.7707182 50.46525,34.7770856 50.46525,36.0220994 C50.46525,37.2671133 51.47325,38.2734807 52.71525,38.2734807 Z" id="Path" fill="#374E69"></path>
                        <path d="M52.71525,72.0441989 L105.75,72.0441989 C106.992,72.0441989 108,71.0378315 108,69.7928177 C108,68.5478039 106.992,67.5414365 105.75,67.5414365 L52.71525,67.5414365 C51.47325,67.5414365 50.46525,68.5478039 50.46525,69.7928177 C50.46525,71.0378315 51.47325,72.0441989 52.71525,72.0441989 Z" id="Path" fill="#374E69"></path>
                        <path d="M52.71525,105.814917 L105.75,105.814917 C106.992,105.814917 108,104.80855 108,103.563536 C108,102.318522 106.992,101.312155 105.75,101.312155 L52.71525,101.312155 C51.47325,101.312155 50.46525,102.318522 50.46525,103.563536 C50.46525,104.80855 51.47325,105.814917 52.71525,105.814917 Z" id="Path" fill="#374E69"></path>
                        <rect id="Rectangle" stroke="#374E69" stroke-width="4.5" fill-rule="nonzero" x="2.25" y="2.25" width="130.5" height="158.5" rx="7.2"></rect>
                        <polygon id="Path" fill="#374E69" points="28.12725 41.5920166 33.59025 38.7170028 39.05325 41.5920166 38.0115 35.5042818 42.4305 31.1906354 36.32175 30.3035912 33.59025 24.7651934 30.85875 30.3035912 24.75 31.1906354 29.17125 35.5042818"></polygon>
                        <polygon id="Path" fill="#374E69" points="28.12725 75.5495994 33.59025 72.6745856 39.05325 75.5495994 38.0115 69.4618646 42.4305 65.1504696 36.32175 64.261174 33.59025 58.7227762 30.85875 64.261174 24.75 65.1504696 29.17125 69.4618646"></polygon>
                        <polygon id="Path" fill="#374E69" points="28.12725 110.31768 33.59025 107.442666 39.05325 110.31768 38.0115 104.229945 42.4305 99.9185497 36.32175 99.0292541 33.59025 93.4908564 30.85875 99.0292541 24.75 99.9185497 29.17125 104.229945"></polygon>
                        <path d="M52.65,139.585635 L105.68475,139.585635 C106.92675,139.585635 107.93475,138.579268 107.93475,137.334254 C107.93475,136.08924 106.92675,135.082873 105.68475,135.082873 L52.65,135.082873 C51.408,135.082873 50.4,136.08924 50.4,137.334254 C50.4,138.579268 51.408,139.585635 52.65,139.585635 Z" id="Path-Copy-2" fill="#374E69"></path>
                        <ellipse id="Oval" fill="#374E69" fill-rule="nonzero" cx="34.2" cy="135.553412" rx="7.2" ry="7.20441989"></ellipse>
                    </g>
                </g>
            </g>
        </g>
    </g>
</svg>