<svg height="512pt" viewBox="-56 0 512 512" width="512pt" xmlns="http://www.w3.org/2000/svg"><path d="m200 452c-5.519531 0-10 4.480469-10 10s4.480469 10 10 10 10-4.480469 10-10-4.480469-10-10-10zm0 0"/><path d="m199.277344 229.886719 26.140625 13.734375c3.371093 1.769531 7.453125 1.476562 10.53125-.761719s4.621093-6.03125 3.976562-9.78125l-4.988281-29.097656 21.144531-20.621094c2.726563-2.65625 3.703125-6.632813 2.527344-10.25-1.175781-3.621094-4.304687-6.257813-8.070313-6.804687l-29.226562-4.246094-13.0625-26.484375c-1.6875-3.414063-5.160156-5.574219-8.96875-5.574219s-7.285156 2.160156-8.96875 5.574219l-13.074219 26.484375-29.226562 4.246094c-3.765625.546874-6.894531 3.183593-8.070313 6.804687-1.179687 3.621094-.199218 7.59375 2.527344 10.25l21.144531 20.621094-4.992187 29.097656c-.640625 3.753906.898437 7.542969 3.980468 9.78125 3.082032 2.242187 7.167969 2.53125 10.527344.761719zm-13.960938-48.789063c3.257813-.476562 6.074219-2.519531 7.53125-5.472656l6.429688-13.023438 6.421875 13.023438c1.457031 2.949219 4.273437 4.996094 7.53125 5.472656l14.382812 2.085938-10.402343 10.148437c-2.359376 2.296875-3.433594 5.605469-2.875 8.847657l2.453124 14.3125-12.855468-6.753907c-2.914063-1.53125-6.394532-1.53125-9.304688 0l-12.867187 6.757813 2.457031-14.316406c.554688-3.242188-.519531-6.550782-2.875-8.847657l-10.40625-10.148437zm0 0"/><path d="m320 180v-.558594c44.9375-4.992187 80-43.195312 80-89.441406v-40c0-27.625-22.378906-50-50-50-24.144531 0-44.347656 17.203125-48.992188 40h-202.015624c-4.644532-22.796875-24.847657-40-48.992188-40-27.625 0-50 22.378906-50 50v40c0 46.246094 35.0625 84.449219 80 89.441406v.558594c0 52.625 33.671875 96.769531 80 113.167969v64.628906c-21.523438 8.027344-33.332031 24.828125-38.167969 54.203125h-11.832031c-16.542969 0-30 13.457031-30 30v10h-10c-16.542969 0-30 13.457031-30 30v20c0 5.523438 4.476562 10 10 10h300c5.523438 0 10-4.476562 10-10v-20c0-16.542969-13.457031-30-30-30h-10v-10c0-16.542969-13.457031-30-30-30h-11.832031c-4.839844-29.375-16.648438-46.179688-38.167969-54.203125v-64.65625c47.460938-16.789063 80-62.25 80-113.140625zm-120 172c-7.390625 0-14.003906.382812-20 1.128906v-54.800781c6.582031 1.105469 13.269531 1.671875 20 1.671875s13.417969-.566406 20-1.671875v54.800781c-5.996094-.746094-12.613281-1.128906-20-1.128906zm-100-292h200v20h-200zm250-40c16.570312 0 30 13.429688 30 30v40c0 35.203125-26.125 64.40625-60 69.273438 0-4.226563 0-103.734376 0-109.273438 0-16.542969 13.457031-30 30-30zm-330 70v-40c0-16.570312 13.429688-30 30-30 16.542969 0 30 13.457031 30 30v109.273438c-33.875-4.867188-60-34.070313-60-69.273438zm80 90c0-14.511719 0-54.566406 0-80h200v80c0 54.105469-43.882812 100-100 100-54.980469 0-100-44.5-100-100zm200 262v10h-60c-5.523438 0-10 4.476562-10 10s4.476562 10 10 10h90c5.515625 0 10 4.484375 10 10v10h-280v-10c0-5.515625 4.484375-10 10-10h90c5.523438 0 10-4.476562 10-10s-4.476562-10-10-10h-60v-10c0-5.515625 4.484375-10 10-10h180c5.515625 0 10 4.484375 10 10zm-42.132812-30h-115.734376c5.289063-27.566406 16.605469-40 57.867188-40 41.382812 0 52.59375 12.519531 57.867188 40zm0 0"/></svg>