<?xml version="1.0" encoding="UTF-8"?>
<svg width="266px" height="72px" viewBox="0 0 266 72" version="1.1" xmlns="http://www.w3.org/2000/svg" xmlns:xlink="http://www.w3.org/1999/xlink">
    <!-- Generator: Sketch 52.5 (67469) - http://www.bohemiancoding.com/sketch -->
    <title>BlockChain figure</title>
    <desc>Created with Sketch.</desc>
    <g id="Page-1" stroke="none" stroke-width="1" fill="none" fill-rule="evenodd">
        <g id="LAnding-page-Copy-8-*-Copy" transform="translate(-266.000000, -1836.000000)">
            <g id="blockchain-rectangle" transform="translate(0.000000, 1732.000000)">
                <g id="BlockChain-figure" transform="translate(266.000000, 104.000000)">
                    <path d="M64.7027027,16.7906935 C64.7027027,16.7714935 64.6955135,16.7546935 64.6943153,16.7354935 C64.6895225,16.6466935 64.6787387,16.5602935 64.655973,16.4762935 C64.6451892,16.4402935 64.6284144,16.4078935 64.614036,16.3730935 C64.5888739,16.3082935 64.5649099,16.2458935 64.528964,16.1870935 C64.5073964,16.1510935 64.4798378,16.1198935 64.4558739,16.0874935 C64.4175315,16.0358935 64.377991,15.9854935 64.3324595,15.9410935 C64.3013063,15.9110935 64.2653604,15.8846935 64.2306126,15.8582935 C64.1982613,15.8330935 64.1707027,15.8030935 64.135955,15.7802935 C64.1155856,15.7682935 64.0928198,15.7622935 64.0724505,15.7514935 C64.0556757,15.7418935 64.0424955,15.7274935 64.0245225,15.7190935 L31.6731712,0.119093501 C31.3328829,-0.0453064986 30.9362793,-0.0393064986 30.6007838,0.135893501 L0.645828829,15.7358935 C0.632648649,15.7430935 0.624261261,15.7538935 0.611081081,15.7610935 C0.597900901,15.7682935 0.582324324,15.7718935 0.567945946,15.7802935 C0.527207207,15.8054935 0.496054054,15.8390935 0.45890991,15.8690935 C0.424162162,15.8966935 0.387018018,15.9218935 0.354666667,15.9530935 C0.309135135,15.9986935 0.273189189,16.0490935 0.236045045,16.1006935 C0.212081081,16.1342935 0.183324324,16.1642935 0.162954955,16.2002935 C0.125810811,16.2638935 0.100648649,16.3322935 0.0766846847,16.4018935 C0.0659009009,16.4318935 0.0503243243,16.4582935 0.0419369369,16.4894935 C0.0155765766,16.5878935 0,16.6922935 0,16.7990935 L0,55.1990935 C0,55.6538935 0.256414414,56.0690935 0.662603604,56.2730935 L31.8157568,71.8730935 C31.8337297,71.8814935 31.8529009,71.8778935 31.8708739,71.8862935 C32.0254414,71.9534935 32.186,71.9990935 32.3513514,71.9990935 C32.5167027,71.9990935 32.6784595,71.9534935 32.8318288,71.8850935 C32.8498018,71.8766935 32.8701712,71.8802935 32.8869459,71.8718935 L64.0400991,56.2718935 C64.4462883,56.0690935 64.7027027,55.6538935 64.7027027,55.1990935 L64.7027027,16.7990935 C64.7027027,16.7978935 64.7027027,16.7966935 64.7027027,16.7942935 C64.7027027,16.7930935 64.7027027,16.7918935 64.7027027,16.7906935 Z M31.1735225,2.5406935 L60.7845946,16.8194935 L32.3513514,31.0574935 L3.83543243,16.7786935 L31.1735225,2.5406935 Z M2.3963964,18.7406935 L31.1531532,33.1406935 L31.1531532,68.8574935 L2.3963964,54.4574935 L2.3963964,18.7406935 Z M62.3063063,54.4574935 L33.5495495,68.8574935 L33.5495495,33.1406935 L62.3063063,18.7406935 L62.3063063,54.4574935 Z" id="Shape" fill="#FFFFFF" fill-rule="nonzero"></path>
                    <path d="M165.351351,16.7906935 C165.351351,16.7714935 165.344162,16.7546935 165.342964,16.7354935 C165.338171,16.6466935 165.327387,16.5602935 165.304622,16.4762935 C165.293838,16.4402935 165.277063,16.4078935 165.262685,16.3730935 C165.237523,16.3082935 165.213559,16.2458935 165.177613,16.1870935 C165.156045,16.1510935 165.128486,16.1198935 165.104523,16.0874935 C165.06618,16.0358935 165.02664,15.9854935 164.981108,15.9410935 C164.949955,15.9110935 164.914009,15.8846935 164.879261,15.8582935 C164.84691,15.8330935 164.819351,15.8030935 164.784604,15.7802935 C164.764234,15.7682935 164.741468,15.7622935 164.721099,15.7514935 C164.704324,15.7418935 164.691144,15.7274935 164.673171,15.7190935 L132.32182,0.119093501 C131.981532,-0.0453064986 131.584928,-0.0393064986 131.249432,0.135893501 L101.294477,15.7358935 C101.281297,15.7430935 101.27291,15.7538935 101.25973,15.7610935 C101.24655,15.7682935 101.230973,15.7718935 101.216595,15.7802935 C101.175856,15.8054935 101.144703,15.8390935 101.107559,15.8690935 C101.072811,15.8966935 101.035667,15.9218935 101.003315,15.9530935 C100.957784,15.9986935 100.921838,16.0490935 100.884694,16.1006935 C100.86073,16.1342935 100.831973,16.1642935 100.811604,16.2002935 C100.774459,16.2638935 100.749297,16.3322935 100.725333,16.4018935 C100.71455,16.4318935 100.698973,16.4582935 100.690586,16.4894935 C100.664225,16.5878935 100.648649,16.6922935 100.648649,16.7990935 L100.648649,55.1990935 C100.648649,55.6538935 100.905063,56.0690935 101.311252,56.2730935 L132.464405,71.8730935 C132.482378,71.8814935 132.50155,71.8778935 132.519523,71.8862935 C132.67409,71.9534935 132.834649,71.9990935 133,71.9990935 C133.165351,71.9990935 133.327108,71.9534935 133.480477,71.8850935 C133.49845,71.8766935 133.51882,71.8802935 133.535595,71.8718935 L164.688748,56.2718935 C165.094937,56.0690935 165.351351,55.6538935 165.351351,55.1990935 L165.351351,16.7990935 C165.351351,16.7978935 165.351351,16.7966935 165.351351,16.7942935 C165.351351,16.7930935 165.351351,16.7918935 165.351351,16.7906935 Z M131.822171,2.5406935 L161.433243,16.8194935 L133,31.0574935 L104.484081,16.7786935 L131.822171,2.5406935 Z M103.045045,18.7406935 L131.801802,33.1406935 L131.801802,68.8574935 L103.045045,54.4574935 L103.045045,18.7406935 Z M162.954955,54.4574935 L134.198198,68.8574935 L134.198198,33.1406935 L162.954955,18.7406935 L162.954955,54.4574935 Z" id="Shape-Copy" fill="#FFFFFF" fill-rule="nonzero"></path>
                    <path d="M266,16.7906935 C266,16.7714935 265.992811,16.7546935 265.991613,16.7354935 C265.98682,16.6466935 265.976036,16.5602935 265.95327,16.4762935 C265.942486,16.4402935 265.925712,16.4078935 265.911333,16.3730935 C265.886171,16.3082935 265.862207,16.2458935 265.826261,16.1870935 C265.804694,16.1510935 265.777135,16.1198935 265.753171,16.0874935 C265.714829,16.0358935 265.675288,15.9854935 265.629757,15.9410935 C265.598604,15.9110935 265.562658,15.8846935 265.52791,15.8582935 C265.495559,15.8330935 265.468,15.8030935 265.433252,15.7802935 C265.412883,15.7682935 265.390117,15.7622935 265.369748,15.7514935 C265.352973,15.7418935 265.339793,15.7274935 265.32182,15.7190935 L232.970468,0.119093501 C232.63018,-0.0453064986 232.233577,-0.0393064986 231.898081,0.135893501 L201.943126,15.7358935 C201.929946,15.7430935 201.921559,15.7538935 201.908378,15.7610935 C201.895198,15.7682935 201.879622,15.7718935 201.865243,15.7802935 C201.824505,15.8054935 201.793351,15.8390935 201.756207,15.8690935 C201.721459,15.8966935 201.684315,15.9218935 201.651964,15.9530935 C201.606432,15.9986935 201.570486,16.0490935 201.533342,16.1006935 C201.509378,16.1342935 201.480622,16.1642935 201.460252,16.2002935 C201.423108,16.2638935 201.397946,16.3322935 201.373982,16.4018935 C201.363198,16.4318935 201.347622,16.4582935 201.339234,16.4894935 C201.312874,16.5878935 201.297297,16.6922935 201.297297,16.7990935 L201.297297,55.1990935 C201.297297,55.6538935 201.553712,56.0690935 201.959901,56.2730935 L233.113054,71.8730935 C233.131027,71.8814935 233.150198,71.8778935 233.168171,71.8862935 C233.322739,71.9534935 233.483297,71.9990935 233.648649,71.9990935 C233.814,71.9990935 233.975757,71.9534935 234.129126,71.8850935 C234.147099,71.8766935 234.167468,71.8802935 234.184243,71.8718935 L265.337396,56.2718935 C265.743586,56.0690935 266,55.6538935 266,55.1990935 L266,16.7990935 C266,16.7978935 266,16.7966935 266,16.7942935 C266,16.7930935 266,16.7918935 266,16.7906935 Z M232.47082,2.5406935 L262.081892,16.8194935 L233.648649,31.0574935 L205.13273,16.7786935 L232.47082,2.5406935 Z M203.693694,18.7406935 L232.45045,33.1406935 L232.45045,68.8574935 L203.693694,54.4574935 L203.693694,18.7406935 Z M263.603604,54.4574935 L234.846847,68.8574935 L234.846847,33.1406935 L263.603604,18.7406935 L263.603604,54.4574935 Z" id="Shape-Copy-2" fill="#FFFFFF" fill-rule="nonzero"></path>
                    <path d="M64.7027027,41.4 L101.846847,41.4" id="Line-4" stroke="#FFFFFF" stroke-width="2.4" stroke-linecap="square"></path>
                    <path d="M164.153153,41.4 L202.495495,41.4" id="Line-4-Copy" stroke="#FFFFFF" stroke-width="2.4" stroke-linecap="square"></path>
                </g>
            </g>
        </g>
    </g>
</svg>