<?xml version="1.0" encoding="UTF-8"?>
<svg width="1440px" height="1024px" viewBox="0 0 1440 1024" version="1.1" xmlns="http://www.w3.org/2000/svg" xmlns:xlink="http://www.w3.org/1999/xlink">
    <!-- Generator: Sketch 50.2 (55047) - http://www.bohemiancoding.com/sketch -->
    <title>4k-wallpaper-clouds-cloudy-1183099</title>
    <desc>Created with Sketch.</desc>
    <defs>
        <linearGradient x1="50.7578135%" y1="100%" x2="50.7578135%" y2="23.8903598%" id="linearGradient-1">
            <stop stop-color="#374E69" offset="0%"></stop>
            <stop stop-color="#247F8F" offset="100%"></stop>
        </linearGradient>
        <rect id="path-2" x="0" y="0" width="1966" height="1308"></rect>
    </defs>
    <g id="Page-1" stroke="none" stroke-width="1" fill="none" fill-rule="evenodd">
        <g id="COOMING-SOON">
            <g id="4k-wallpaper-clouds-cloudy-1183099" transform="translate(-263.000000, 0.000000)">
                <mask id="mask-3" fill="white">
                    <use xlink:href="#path-2"></use>
                </mask>
                <use id="Mask" fill="url(#linearGradient-1)" xlink:href="#path-2"></use>
                <g id="background" opacity="0.283984375" style="mix-blend-mode: overlay;" mask="url(#mask-3)">
                    <g transform="translate(-117.000000, -706.000000)">
                        <polygon id="Triangle-3" stroke="none" fill="#777777" points="581 1156.5 2919 500 2919 1813 2204.64674 1724.52637"></polygon>
                        <polygon id="Triangle-3-Copy" stroke="#D8D8D8" stroke-width="4" fill="#BFBFBF" transform="translate(1772.000000, 1904.500000) rotate(32.000000) translate(-1772.000000, -1904.500000) " points="351 1905.31306 3193 1248 3193 2561"></polygon>
                        <polygon id="Triangle-4" stroke="#BBBBBB" stroke-width="6" fill="#B4B4B4" points="561.910474 1151 1433 2014 0 2014"></polygon>
                        <polygon id="Triangle-5" stroke="#979797" stroke-width="2" fill="#C6C6C6" points="578 1160.9375 356.585821 1490 235 1416.875 235 905"></polygon>
                        <path d="M477.606067,580 C686.264586,705.316527 817.250446,818.84662 870.563645,920.590281 C923.876845,1022.33394 893.383895,1102.13718 779.084796,1160 L170,1160 L477.606067,580 Z" id="Triangle-6" stroke="#979797" stroke-width="2" fill="#B1B1B1" transform="translate(533.000000, 870.000000) rotate(182.000000) translate(-533.000000, -870.000000) "></path>
                        <polygon id="Triangle" stroke="#979797" stroke-width="1" fill="#9B9B9B" transform="translate(1311.500000, 801.500000) rotate(236.000000) translate(-1311.500000, -801.500000) " points="1425.29842 -6 1678.31036 511.302129 1733 1295.12393 1117.33801 1295.12393 890 1609"></polygon>
                    </g>
                </g>
            </g>
        </g>
    </g>
</svg>