<?xml version="1.0" encoding="UTF-8"?>
<svg width="199px" height="200px" viewBox="0 0 199 200" version="1.1" xmlns="http://www.w3.org/2000/svg" xmlns:xlink="http://www.w3.org/1999/xlink">
    <!-- Generator: Sketch 50.2 (55047) - http://www.bohemiancoding.com/sketch -->
    <title>greenmartian.3</title>
    <desc>Created with Sketch.</desc>
    <defs></defs>
    <g id="Page-1" stroke="none" stroke-width="1" fill="none" fill-rule="evenodd">
        <g id="COOMING-SOON" transform="translate(-620.000000, -299.000000)">
            <g id="greenmartian.3" transform="translate(621.000000, 300.000000)">
                <g id="Greenmartian-2-colors">
                    <g id="Bckground">
                        <ellipse id="Oval-26" stroke="#FFFFFF" stroke-width="1.35" cx="98.4319011" cy="98.633735" rx="98.4319011" ry="98.633735"></ellipse>
                        <polygon id="Star" fill="#FFFFFF" transform="translate(42.921749, 80.584516) rotate(48.000000) translate(-42.921749, -80.584516) " points="42.7572541 82.4205316 40.4598469 83.3243421 41.1167224 80.9403614 40.1875297 78.1175657 43.0862443 78.7485006 45.3836515 77.8446901 44.7267759 80.2286708 45.6559687 83.0514665"></polygon>
                        <polygon id="Star" fill="#FFFFFF" transform="translate(30.853910, 63.795088) rotate(48.000000) translate(-30.853910, -63.795088) " points="30.7684892 67.3998143 25.6266249 69.6124807 27.5782269 64.5213992 25.0484217 58.5570838 31.4962091 60.1611168 36.081196 57.977695 34.6864713 63.0395319 36.6593992 69.0330919"></polygon>
                        <polygon id="Star" fill="#FFFFFF" transform="translate(167.133434, 115.810850) rotate(48.000000) translate(-167.133434, -115.810850) " points="166.968939 117.646866 164.671532 118.550676 165.328407 116.166695 164.399214 113.3439 167.297929 113.974835 169.595336 113.071024 168.938461 115.455005 169.867653 118.2778"></polygon>
                        <polygon id="Star" fill="#FFFFFF" transform="translate(116.355072, 22.656767) rotate(48.000000) translate(-116.355072, -22.656767) " points="116.190577 24.4927825 113.89317 25.396593 114.550045 23.0126123 113.620853 20.1898166 116.519567 20.8207515 118.816974 19.916941 118.160099 22.3009217 119.089292 25.1237174"></polygon>
                    </g>
                    <g id="Body" transform="translate(58.590417, 55.579327)">
                        <path d="M74.9957342,135.425684 C76.0373416,107.811989 76.5581453,89.807418 76.5581453,81.4119717 C76.5581453,45.4957077 63.7426596,12.5249187 37.8884699,12.5249187 C12.0342801,12.5249187 0.189383167,45.4957077 0.189383167,81.4119717 C0.189383167,89.8095656 0.189383167,107.292265 0.189383167,133.860069 C12.4834439,139.600657 25.0498061,142.470951 37.8884699,142.470951 C50.7271336,142.470951 63.0962217,140.122528 74.9957342,135.425684 Z" id="Oval-27" stroke="#FFFFFF" stroke-width="1.35"></path>
                        <g id="Antena-izq" transform="translate(0.781206, 0.000000)">
                            <path d="M8.20265842,9.00228533 L16.7959196,19.9615892" id="Line-5" stroke="#FFFFFF" stroke-width="2.3328" stroke-linecap="square"></path>
                            <ellipse id="Oval-28" fill="#FFFFFF" cx="5.07783617" cy="5.08824823" rx="5.07783617" ry="5.08824823"></ellipse>
                        </g>
                        <g id="Antena-derecha" transform="translate(68.581315, 11.292240) rotate(3.000000) translate(-68.581315, -11.292240) translate(59.116709, 0.481430)">
                            <path d="M0.390602782,9.78509275 L8.98386399,20.7443966" id="Line-5" stroke="#FFFFFF" stroke-width="2.3328" stroke-linecap="square" transform="translate(4.687233, 15.264745) scale(-1, 1) translate(-4.687233, -15.264745) "></path>
                            <ellipse id="Oval-28" fill="#FFFFFF" transform="translate(12.108686, 5.088248) scale(-1, 1) translate(-12.108686, -5.088248) " cx="12.1086862" cy="5.08824823" rx="5.07783617" ry="5.08824823"></ellipse>
                        </g>
                        <g id="Big-eye" transform="translate(20.311345, 35.226334)">
                            <ellipse id="Oval-29" stroke="#FFFFFF" stroke-width="1.35" cx="18.3583308" cy="18.3959744" rx="18.3583308" ry="18.3959744"></ellipse>
                            <ellipse id="Oval-29" fill="#FFFFFF" cx="18.3583308" cy="18.3959744" rx="10.1990726" ry="10.2199858"></ellipse>
                            <ellipse id="Oval-29" fill="#36516B" cx="16.3185162" cy="16.3519772" rx="4.07962906" ry="4.08799431"></ellipse>
                        </g>
                        <g id="Small-eye" transform="translate(25.779784, 79.846357)">
                            <ellipse id="Oval-29" stroke="#FFFFFF" stroke-width="1.35" cx="12.8898918" cy="12.9163224" rx="12.8898918" ry="12.9163224"></ellipse>
                            <ellipse id="Oval-29" fill="#FFFFFF" cx="12.8898918" cy="12.9163224" rx="7.161051" ry="7.17573469"></ellipse>
                            <ellipse id="Oval-29" fill="#36516B" cx="11.4576816" cy="11.4811755" rx="2.8644204" ry="2.87029387"></ellipse>
                        </g>
                        <g id="Mouth" transform="translate(28.904606, 118.203920)">
                            <path d="M10.1556723,10.1764965 C15.7644953,10.1764965 20.3113447,6.49545923 20.3113447,1.52363433 C20.3113447,-0.967092603 15.2433237,0.344599394 10.1556723,0.3494232 C5.08768945,0.354228357 0,-0.95746364 0,1.52363433 C0,6.49545923 4.54684938,10.1764965 10.1556723,10.1764965 Z" id="Oval-30" stroke="#FFFFFF" stroke-width="1.35"></path>
                            <path d="M10.1556723,10.1764965 C12.7443599,10.1764965 15.6241113,7.73824389 15.6241113,5.47965194 C15.6241113,4.69684452 12.499289,3.9140371 10.1556723,3.9140371 C7.81205564,3.9140371 4.68723338,4.69684452 4.68723338,5.47965194 C4.68723338,7.72238936 7.56698482,10.1764965 10.1556723,10.1764965 Z" id="Oval-30" fill="#FFFFFF" transform="translate(10.155672, 7.045267) scale(1, -1) translate(-10.155672, -7.045267) "></path>
                        </g>
                    </g>
                </g>
            </g>
        </g>
    </g>
</svg>