<?xml version="1.0" encoding="UTF-8"?>
<svg width="213px" height="75px" viewBox="0 0 213 75" version="1.1" xmlns="http://www.w3.org/2000/svg" xmlns:xlink="http://www.w3.org/1999/xlink">
    <!-- Generator: Sketch 52.5 (67469) - http://www.bohemiancoding.com/sketch -->
    <title>greenmartian.3</title>
    <desc>Created with Sketch.</desc>
    <g id="Page-1" stroke="none" stroke-width="1" fill="none" fill-rule="evenodd">
        <g id="LAnding-page-Copy-8-*-Copy" transform="translate(-39.000000, -29.000000)">
            <g id="Hero-image">
                <g id="greenmartian.3" transform="translate(40.000000, 30.000000)">
                    <g id="Font" transform="translate(72.800000, 12.869945)" fill="#FFFFFF" font-family="HiraKakuPro-W3, Hiragino Kaku Gothic Pro" font-weight="300">
                        <text id="Bitcoins" font-size="24" letter-spacing="1.466667">
                            <tspan x="17" y="49">Bitcoins</tspan>
                        </text>
                        <text id="MARTIAN" font-size="28.8" letter-spacing="0.4">
                            <tspan x="0" y="25.0786885">MARTIAN</tspan>
                        </text>
                    </g>
                    <g id="Greenmartian-2-colors">
                        <g id="Bckground">
                            <ellipse id="Oval-26" stroke="#FFFFFF" stroke-width="0.5" cx="36.4" cy="36.4944819" rx="36.4" ry="36.4944819"></ellipse>
                            <polygon id="Star" fill="#FFFFFF" transform="translate(15.872412, 29.816271) rotate(48.000000) translate(-15.872412, -29.816271) " points="15.8115817 30.4955967 14.9620033 30.8300066 15.2049151 29.9479337 14.8613007 28.9034993 15.9332419 29.1369452 16.7828204 28.8025353 16.5399086 29.6846082 16.8835229 30.7290426"></polygon>
                            <polygon id="Star" fill="#FFFFFF" transform="translate(11.409739, 23.604182) rotate(48.000000) translate(-11.409739, -23.604182) " points="11.3781507 24.9379313 9.47669543 25.7566178 10.1983955 23.8729177 9.26287658 21.666121 11.6472607 22.2596132 13.3427834 21.4517471 12.8270158 23.3246268 13.5566022 25.542244"></polygon>
                            <polygon id="Star" fill="#FFFFFF" transform="translate(61.805745, 42.850015) rotate(48.000000) translate(-61.805745, -42.850015) " points="61.7449151 43.5293402 60.8953366 43.8637501 61.1382484 42.9816773 60.794634 41.9372429 61.8665752 42.1706888 62.7161537 41.8362789 62.4732419 42.7183518 62.8168563 43.7627861"></polygon>
                            <polygon id="Star" fill="#FFFFFF" transform="translate(43.027967, 8.383004) rotate(48.000000) translate(-43.027967, -8.383004) " points="42.9671373 9.06232952 42.1175588 9.3967394 42.3604706 8.51466654 42.0168563 7.47023215 43.0887975 7.70367805 43.9383759 7.36926818 43.6954641 8.25134104 44.0390785 9.29577543"></polygon>
                        </g>
                        <g id="Body" transform="translate(21.666667, 20.564351)">
                            <path d="M27.7333333,50.107503 C28.1185185,39.8904358 28.3111111,33.2287447 28.3111111,30.1224295 C28.3111111,16.8334118 23.5719597,4.63421993 14.0111111,4.63421993 C4.45026249,4.63421993 0.07003367,16.8334118 0.07003367,30.1224295 C0.07003367,33.2295393 0.07003367,39.6981379 0.07003367,49.5282255 C4.61636271,51.652243 9.26338853,52.7142517 14.0111111,52.7142517 C18.7588337,52.7142517 23.3329078,51.8453355 27.7333333,50.107503 Z" id="Oval-27" stroke="#FFFFFF" stroke-width="0.5"></path>
                            <g id="Antena-izq" transform="translate(0.288889, 0.000000)">
                                <path d="M3.03333333,3.33084557 L6.21111111,7.38578801" id="Line-5" stroke="#FFFFFF" stroke-width="0.864" stroke-linecap="square"></path>
                                <ellipse id="Oval-28" fill="#FFFFFF" cx="1.87777778" cy="1.88265185" rx="1.87777778" ry="1.88265185"></ellipse>
                            </g>
                            <g id="Antena-derecha" transform="translate(25.361289, 4.178129) rotate(3.000000) translate(-25.361289, -4.178129) translate(21.861289, 0.178129)">
                                <path d="M0.144444444,3.62048432 L3.32222222,7.67542676" id="Line-5" stroke="#FFFFFF" stroke-width="0.864" stroke-linecap="square" transform="translate(1.733333, 5.647956) scale(-1, 1) translate(-1.733333, -5.647956) "></path>
                                <ellipse id="Oval-28" fill="#FFFFFF" transform="translate(4.477778, 1.882652) scale(-1, 1) translate(-4.477778, -1.882652) " cx="4.47777778" cy="1.88265185" rx="1.87777778" ry="1.88265185"></ellipse>
                            </g>
                            <g id="Big-eye" transform="translate(7.511111, 13.033744)">
                                <ellipse id="Oval-29" stroke="#FFFFFF" stroke-width="0.5" cx="6.78888889" cy="6.80651052" rx="6.78888889" ry="6.80651052"></ellipse>
                                <ellipse id="Oval-29" fill="#FFFFFF" cx="6.78888889" cy="6.80651052" rx="3.77160494" ry="3.78139473"></ellipse>
                                <ellipse id="Oval-29" fill="#36516B" cx="6.0345679" cy="6.05023157" rx="1.50864198" ry="1.51255789"></ellipse>
                            </g>
                            <g id="Small-eye" transform="translate(9.533333, 29.543152)">
                                <ellipse id="Oval-29" stroke="#FFFFFF" stroke-width="0.5" cx="4.76666667" cy="4.7790393" rx="4.76666667" ry="4.7790393"></ellipse>
                                <ellipse id="Oval-29" fill="#FFFFFF" cx="4.76666667" cy="4.7790393" rx="2.64814815" ry="2.65502183"></ellipse>
                                <ellipse id="Oval-29" fill="#36516B" cx="4.23703704" cy="4.24803493" rx="1.05925926" ry="1.06200873"></ellipse>
                            </g>
                            <g id="Mouth" transform="translate(10.688889, 43.735451)">
                                <path d="M3.75555556,3.76530369 C5.82969162,3.76530369 7.51111111,2.40331992 7.51111111,0.563744702 C7.51111111,-0.357824263 5.63696298,0.127501776 3.75555556,0.129286584 C1.88142151,0.131064492 0,-0.354261547 0,0.563744702 C0,2.40331992 1.6814195,3.76530369 3.75555556,3.76530369 Z" id="Oval-30" stroke="#FFFFFF" stroke-width="0.5"></path>
                                <path d="M3.75555556,3.76530369 C4.71284912,3.76530369 5.77777778,2.86315024 5.77777778,2.02747122 C5.77777778,1.73783247 4.62222222,1.44819373 3.75555556,1.44819373 C2.88888889,1.44819373 1.73333333,1.73783247 1.73333333,2.02747122 C1.73333333,2.85728406 2.79826199,3.76530369 3.75555556,3.76530369 Z" id="Oval-30" fill="#FFFFFF" transform="translate(3.755556, 2.606749) scale(1, -1) translate(-3.755556, -2.606749) "></path>
                            </g>
                        </g>
                    </g>
                </g>
            </g>
        </g>
    </g>
</svg>