<?xml version="1.0" encoding="UTF-8"?>
<svg width="748px" height="1513px" viewBox="0 0 748 1513" version="1.1" xmlns="http://www.w3.org/2000/svg" xmlns:xlink="http://www.w3.org/1999/xlink">
    <!-- Generator: Sketch 52.5 (67469) - http://www.bohemiancoding.com/sketch -->
    <title>Timeline</title>
    <desc>Created with Sketch.</desc>
    <defs>
        <linearGradient x1="12.7029934%" y1="61.9451799%" x2="88.8126336%" y2="61.9451799%" id="linearGradient-1">
            <stop stop-color="#374E69" offset="0%"></stop>
            <stop stop-color="#247F8F" offset="100%"></stop>
        </linearGradient>
        <linearGradient x1="50.7578135%" y1="100%" x2="50.7578135%" y2="23.8903598%" id="linearGradient-2">
            <stop stop-color="#374E69" offset="0%"></stop>
            <stop stop-color="#247F8F" offset="100%"></stop>
        </linearGradient>
        <radialGradient cx="50%" cy="45.7741944%" fx="50%" fy="45.7741944%" r="42.1109421%" id="radialGradient-3">
            <stop stop-color="#B1F26C" offset="0%"></stop>
            <stop stop-color="#E4FCCB" offset="100%"></stop>
        </radialGradient>
    </defs>
    <g id="Page-1" stroke="none" stroke-width="1" fill="none" fill-rule="evenodd">
        <g id="LAnding-page-Copy-8-*-Copy" transform="translate(-347.000000, -4586.000000)">
            <g id="Timeline" transform="translate(341.000000, 4474.000000)">
                <g transform="translate(379.000000, 869.000000) rotate(90.000000) translate(-379.000000, -869.000000) translate(-377.500000, 490.500000)">
                    <path d="M102.6,357.8 L281.4,357.8" id="Line-6" stroke="url(#linearGradient-1)" stroke-width="1.2" stroke-linecap="square"></path>
                    <path d="M384.8,361.2 L564.8,361.2" id="Line-6-Copy" stroke="url(#linearGradient-1)" stroke-width="1.2" stroke-linecap="square"></path>
                    <path d="M669.2,362.4 L854,362.4" id="Line-6-Copy-2" stroke="url(#linearGradient-1)" stroke-width="1.2" stroke-linecap="square"></path>
                    <g id="Q3" transform="translate(0.000000, 306.000000)">
                        <circle id="Oval-3" fill="url(#linearGradient-2)" cx="51.6" cy="51.6" r="51.6"></circle>
                        <g id="sketch" transform="translate(52.600000, 51.800000) rotate(-90.000000) translate(-52.600000, -51.800000) translate(21.600000, 20.800000)" fill="#FFFFFF" fill-rule="nonzero">
                            <path d="M8.92468125,10.1815523 C6.81220547,10.1815523 5.09968125,11.8940766 5.09968125,14.0065523 L5.09968125,24.2065125 L7.64964141,24.2065125 L7.64964141,14.0065523 C7.64964141,13.3023938 8.22052266,12.7315125 8.92468125,12.7315125 L39.5246812,12.7315125 L39.5246812,10.1815523 L8.92468125,10.1815523 Z" id="Shape"></path>
                            <path d="M8.92468125,48.4315523 C8.22052266,48.4315523 7.64964141,47.8606711 7.64964141,47.1565125 L7.64964141,34.4064727 L5.09968125,34.4064727 L5.09968125,47.1565125 C5.09968125,49.2689883 6.81220547,50.9815125 8.92468125,50.9815125 L21.6747211,50.9815125 L21.6747211,48.4315523 L8.92468125,48.4315523 Z" id="Shape"></path>
                            <path d="M40.4261859,51.7197375 L9.46149609,20.7550477 C8.96364844,20.2573195 8.15657344,20.2573195 7.65860625,20.7550477 L0.373296094,28.0404773 C-0.124432031,28.538325 -0.124432031,29.3454 0.373296094,29.8433672 L31.3379859,60.8079375 C31.5770484,61.0471195 31.9013367,61.1814727 32.2393711,61.1814727 C32.577525,61.1813531 32.9016937,61.047 33.1407562,60.8079375 L40.4260664,53.5226273 C40.9239141,53.0246602 40.9239141,52.2175852 40.4261859,51.7197375 Z M32.2393711,58.1036625 L3.07757109,28.9418625 L8.56011094,23.4593227 L37.7219109,52.6212422 L32.2393711,58.1036625 Z" id="Shape"></path>
                            <path d="M56.0997211,48.4315523 L36.9747211,48.4315523 L36.9747211,50.9815125 L50.9996812,50.9815125 L50.9996812,57.3564727 C50.9996812,58.0606312 51.5705625,58.6315125 52.2747211,58.6315125 L56.0997211,58.6315125 C58.9163555,58.6315125 61.1997609,56.3482266 61.1997609,53.5314727 C61.1997609,50.7148383 58.9163555,48.4315523 56.0997211,48.4315523 Z M56.0997211,56.0815523 L53.5497609,56.0815523 L53.5497609,50.9815125 L56.0997211,50.9815125 C57.5080383,50.9815125 58.6496812,52.1231555 58.6496812,53.5314727 C58.6496812,54.9399094 57.5080383,56.0815523 56.0997211,56.0815523 Z" id="Shape"></path>
                            <path d="M56.0997211,10.1815523 L49.7247609,10.1815523 L49.7247609,12.7315125 L56.0997211,12.7315125 C57.5080383,12.7315125 58.6496813,13.8731555 58.6496813,15.2814727 L58.6496813,53.5314727 L61.1996414,53.5314727 L61.1996414,15.2814727 C61.1997609,12.4648383 58.9163555,10.1815523 56.0997211,10.1815523 Z" id="Shape"></path>
                            <polygon id="Rectangle-path" transform="translate(22.312629, 38.869017) rotate(-45.000000) translate(-22.312629, -38.869017) " points="19.6077221 37.5940494 25.017535 37.5940494 25.017535 40.1439851 19.6077221 40.1439851"></polygon>
                            <polygon id="Rectangle-path" transform="translate(17.212784, 33.769001) rotate(-45.000000) translate(-17.212784, -33.769001) " points="14.5078777 32.4940327 19.9176907 32.4940327 19.9176907 35.0439684 14.5078777 35.0439684"></polygon>
                            <polygon id="Rectangle-path" transform="translate(27.409872, 43.969053) rotate(-45.000000) translate(-27.409872, -43.969053) " points="24.7049658 42.6940849 30.1147788 42.6940849 30.1147788 45.2440206 24.7049658 45.2440206"></polygon>
                            <polygon id="Rectangle-path" transform="translate(32.512154, 49.071616) rotate(-45.000000) translate(-32.512154, -49.071616) " points="29.8072475 47.7966486 35.2170605 47.7966486 35.2170605 50.3465843 29.8072475 50.3465843"></polygon>
                            <rect id="Rectangle-path" transform="translate(12.109281, 28.668999) rotate(-45.000000) translate(-12.109281, -28.668999) " x="9.4043742" y="27.3940311" width="5.40981296" height="2.5499357"></rect>
                            <path d="M54.9956109,2.8477125 L53.2334812,1.08570234 C51.742568,-0.33755625 49.3961695,-0.33755625 47.9052562,1.08570234 L28.5176461,20.4733125 C28.019918,20.9711602 28.019918,21.7782352 28.5176461,22.2762023 L33.8051109,27.5636672 C34.0435758,27.8036859 34.3682227,27.9381586 34.7064961,27.9372023 C35.04465,27.9370828 35.3688188,27.8027297 35.6078812,27.5636672 L54.9956109,8.1759375 C54.9962086,8.17533984 54.9968063,8.17474219 54.9974039,8.17414453 C56.4677578,6.70283438 56.4669211,4.31806641 54.9956109,2.8477125 Z M53.1940359,6.37185234 L34.7064961,24.8592727 L31.2219211,21.3746977 L49.7094609,2.88847266 C50.1909328,2.42839687 50.9492391,2.42839687 51.4307109,2.88847266 L53.1940359,4.6492875 C53.1941555,4.64952656 53.1943945,4.64964609 53.1946336,4.64988516 C53.6698898,5.1255 53.6696508,5.89647656 53.1940359,6.37185234 Z" id="Shape"></path>
                            <path d="M34.2972211,25.4534625 L28.7943609,27.2907773 L30.6316758,21.7789523 L28.2091359,20.9718773 L25.5647461,28.9036125 C25.5214758,29.0336625 25.4993625,29.1698086 25.4993625,29.3067914 C25.499482,30.01095 26.0704828,30.5817117 26.7746414,30.5814727 C26.9095922,30.5819508 27.0438258,30.5612719 27.1724414,30.5202727 L35.1041766,27.8758828 L34.2972211,25.4534625 Z" id="Shape"></path>
                            <polygon id="Rectangle-path" transform="translate(47.924682, 8.155049) rotate(-45.000000) translate(-47.924682, -8.155049) " points="46.6497144 4.41614761 49.1996501 4.41614761 49.1996501 11.8939509 46.6497144 11.8939509"></polygon>
                            <rect id="Rectangle-path" x="26.7747609" y="28.0315125" width="19.125" height="2.54996016"></rect>
                            <polygon id="Rectangle-path" points="48.4497211 28.0315125 50.9996813 28.0315125 50.9996813 30.5814727 48.4497211 30.5814727"></polygon>
                            <polygon id="Rectangle-path" points="53.5497609 28.0315125 56.0997211 28.0315125 56.0997211 30.5814727 53.5497609 30.5814727"></polygon>
                        </g>
                    </g>
                    <g id="Q4" transform="translate(282.200000, 309.000000)">
                        <circle id="Oval-3-Copy" fill="url(#linearGradient-2)" cx="51.6" cy="51.6" r="51.6"></circle>
                        <g id="sprout" transform="translate(51.600000, 51.600000) rotate(-90.000000) translate(-51.600000, -51.600000) translate(26.100000, 26.600000)" fill="#FFFFFF">
                            <ellipse id="Oval" cx="8.08439648" cy="39.1732143" rx="1" ry="1"></ellipse>
                            <path d="M45.9398437,8.82440476 L40.0790273,8.82440476 C38.7560156,8.82440476 37.5410801,9.29404762 36.5932969,10.0746032 L36.5932969,9.81646825 L36.5932969,7.09206349 C36.5932969,3.19613095 33.4110762,0.0267857143 29.499416,0.0267857143 L22.8539766,0.0267857143 C22.303834,0.0267857143 21.8578828,0.471031746 21.8578828,1.01884921 L21.8578828,3.74335317 C21.8578828,7.63918651 25.0401035,10.8085317 28.9517637,10.8085317 L34.6011094,10.8085317 L34.6011094,14.2801587 L34.6011094,16.956746 L34.6011094,20.8651786 C34.3383398,20.8484127 34.0740762,20.8391865 33.8085176,20.8391865 C31.1906836,20.8391865 28.6878984,21.6429563 26.5711992,23.1634921 C26.1250488,23.4839286 26.0241445,24.1039683 26.3459824,24.5484127 C26.6678203,24.9927579 27.2903789,25.0934524 27.7365293,24.7727183 C29.5118672,23.4975198 31.6116328,22.8234127 33.8085176,22.8234127 C34.3395352,22.8234127 34.8644766,22.8652778 35.3801543,22.9439484 C35.4228867,22.953373 35.4666152,22.960119 35.5112402,22.9639881 C38.6109844,23.4772817 41.3520352,25.3727183 42.9056426,28.1654762 C43.0875293,28.4923611 43.4273965,28.6768849 43.7778223,28.6768849 C43.941082,28.6768849 44.1067324,28.6368056 44.2596328,28.552381 C44.7408457,28.2868056 44.9147637,27.6830357 44.6481094,27.2037698 C42.9244687,24.1053571 39.973541,21.934623 36.5931973,21.1566468 L36.5931973,17.9488095 L41.4580195,17.9488095 C44.4784746,17.9488095 46.9359375,15.5013889 46.9359375,12.4930556 L46.9359375,9.81646825 C46.9359375,9.26865079 46.4899863,8.82440476 45.9398437,8.82440476 Z M34.6011094,8.82440476 L28.9517637,8.82440476 C26.1386953,8.82440476 23.8500703,6.54503968 23.8500703,3.74335317 L23.8500703,2.0109127 L29.499416,2.0109127 C32.3124844,2.0109127 34.6011094,4.29027778 34.6011094,7.09206349 L34.6011094,8.82440476 Z M44.94375,12.4931548 C44.94375,14.4073413 43.380082,15.9647817 41.4580195,15.9647817 L36.5932969,15.9647817 L36.5932969,14.2802579 C36.5932969,12.3660714 38.1569648,10.808631 40.0790273,10.808631 L44.94375,10.808631 L44.94375,12.4931548 Z" id="Shape" fill-rule="nonzero"></path>
                            <path d="M50.6675039,32.2233135 C49.7981133,30.2623016 47.4888691,29.3717262 45.5198906,30.2371032 C45.5149102,30.2392857 45.5100293,30.2415675 45.5050488,30.24375 L38.9968711,33.2329365 C38.4972305,33.4624008 38.2790859,34.0517857 38.5093828,34.5493056 C38.7397793,35.0469246 39.3315586,35.2640873 39.8310996,35.0348214 L46.3313086,32.0493056 C47.293834,31.6304563 48.4202168,32.0667659 48.8449512,33.0248016 C49.270582,33.9850198 48.8325,35.1110119 47.8684805,35.5350198 L34.5501094,41.3916667 C32.4397852,42.3197421 30.0443789,42.265873 27.9781816,41.2433532 L23.1029004,38.8311508 C20.5050879,37.5457341 17.4931992,37.477877 14.8399043,38.6446429 L14.7440801,38.6869048 L11.1004687,30.4680556 L16.1590312,28.2436508 C18.5687813,27.1839286 21.2578359,27.0985119 23.7305391,28.0027778 L33.5343926,31.5885913 C34.4287852,31.9157738 34.9055156,32.9123016 34.597125,33.810119 C34.2828574,34.7251984 33.2788945,35.2172619 32.3592012,34.9076389 L24.7779316,32.3537698 C24.2567754,32.1781746 23.6914922,32.4566468 23.5151836,32.9756944 C23.338875,33.4947421 23.6184785,34.0577381 24.1396348,34.2333333 L31.7209043,36.7872024 C32.1178477,36.9209325 32.5221621,36.9844246 32.9201016,36.9844246 C34.4837695,36.9844246 35.949123,36.0040675 36.4821328,34.4525794 C37.1382598,32.5424603 36.1240371,30.422123 34.2212988,29.7261905 L24.4175449,26.140377 C21.457752,25.0579365 18.2391738,25.1602183 15.3546855,26.4284722 L10.2635508,28.6672619 C9.97717383,28.2289683 9.56369531,27.8899802 9.06455273,27.6972222 C8.43601758,27.4547619 7.75020703,27.4705357 7.13611523,27.7405754 L0.596261719,30.5944444 C0.234082031,30.7525794 0,31.1092262 0,31.5031746 L0,48.9811508 C0,49.3256944 0.179496094,49.6455357 0.474140625,49.8261905 C0.633714844,49.9239087 0.814605469,49.9732143 0.99609375,49.9732143 C1.14969141,49.9732143 1.30358789,49.9378968 1.44513281,49.8666667 L14.1413437,43.478869 C14.7450762,43.2053571 15.2087578,42.716369 15.4487168,42.0994048 C15.6486328,41.5855159 15.6737344,41.0332341 15.5257148,40.5121032 L15.6444492,40.4599206 C17.7549727,39.5318452 20.1502793,39.5860119 22.2164766,40.6083333 L27.0917578,43.0205357 C29.6894707,44.3059524 32.7012598,44.3739087 35.3547539,43.2069444 L48.6732246,37.3502976 C50.6422031,36.4843254 51.5367949,34.1843254 50.6675039,32.2233135 Z M13.5911016,41.3825397 C13.5398027,41.5143849 13.4400937,41.6184524 13.3102031,41.675496 C13.2943652,41.6824405 13.2788262,41.689881 13.2633867,41.697619 L1.9921875,47.3684524 L1.9921875,43.0257937 L4.93843359,41.5848214 C5.43229687,41.343254 5.63599805,40.7488095 5.39344922,40.2569444 C5.15090039,39.7650794 4.5538418,39.5622024 4.06027734,39.8037698 L1.9921875,40.8151786 L1.9921875,32.1514881 L7.93767187,29.556746 C8.0675625,29.4997024 8.21199609,29.4963294 8.34427734,29.5473214 C8.4766582,29.5984127 8.58114844,29.6978175 8.63852344,29.8270833 L13.3239492,40.3957341 C13.3243477,40.3967262 13.3247461,40.397619 13.3251445,40.3985119 L13.5818379,40.9774802 C13.6391133,41.1068452 13.6424004,41.2506944 13.5911016,41.3825397 Z" id="Shape" fill-rule="nonzero"></path>
                        </g>
                    </g>
                    <g id="Q1-2019" transform="translate(565.400000, 310.200000)">
                        <circle id="Oval-3-Copy-2" fill="url(#linearGradient-2)" cx="51.6" cy="51.6" r="51.6"></circle>
                        <g id="website" transform="translate(51.600000, 51.600000) rotate(-90.000000) translate(-51.600000, -51.600000) translate(20.600000, 22.100000)" fill="#FFFFFF">
                            <path d="M57.8656172,0.0634012097 L4.13438281,0.0634012097 C1.85479297,0.0634012097 0,1.88550202 0,4.12464718 L0,37.6203508 C0,38.1806129 0.462941406,38.6353649 1.03329297,38.6353649 L60.9665859,38.6353649 C61.5369375,38.6353649 61.9998789,38.1806129 61.9998789,37.6203508 L61.9998789,4.12464718 C62,1.88550202 60.145207,0.0634012097 57.8656172,0.0634012097 Z M59.933293,36.6053367 L2.06670703,36.6053367 L2.06670703,4.12464718 C2.06670703,3.00400403 2.99464844,2.09354839 4.13438281,2.09354839 L57.8656172,2.09354839 C59.0053516,2.09354839 59.933293,3.00400403 59.933293,4.12464718 L59.933293,36.6053367 Z" id="Shape" fill-rule="nonzero"></path>
                            <path d="M60.966707,36.6053367 L1.03329297,36.6053367 C0.462941406,36.6053367 0,37.0600887 0,37.6203508 L0,42.6945887 C0,44.9338528 1.85479297,46.7558347 4.13438281,46.7558347 L57.8656172,46.7558347 C60.145207,46.7558347 62,44.9338528 62,42.6945887 L62,37.6203508 C62,37.0600887 61.5370586,36.6053367 60.966707,36.6053367 Z M59.933293,42.6947077 C59.933293,43.8153508 59.0053516,44.7258065 57.8656172,44.7258065 L4.13438281,44.7258065 C2.99464844,44.7258065 2.06670703,43.8153508 2.06670703,42.6947077 L2.06670703,38.6354839 L59.9334141,38.6354839 L59.9334141,42.6947077 L59.933293,42.6947077 Z" id="Shape" fill-rule="nonzero"></path>
                            <path d="M34.1,40.665631 L27.9,40.665631 C27.3296484,40.665631 26.866707,41.1203831 26.866707,41.6806452 C26.866707,42.2409073 27.3296484,42.6956593 27.9,42.6956593 L34.1,42.6956593 C34.6703516,42.6956593 35.133293,42.2409073 35.133293,41.6806452 C35.133293,41.1203831 34.6703516,40.665631 34.1,40.665631 Z" id="Path"></path>
                            <path d="M56.833293,4.12369556 L5.16670703,4.12369556 C4.59635547,4.12369556 4.13341406,4.57844758 4.13341406,5.13870968 L4.13341406,37.6204698 C4.13341406,38.1807319 4.59635547,38.6354839 5.16670703,38.6354839 L56.8334141,38.6354839 C57.4037656,38.6354839 57.866707,38.1807319 57.866707,37.6204698 L57.866707,5.13870968 C57.866707,4.57844758 57.4037656,4.12369556 56.833293,4.12369556 Z M55.8,36.6053367 L6.2,36.6053367 L6.2,6.15372379 L55.8,6.15372379 L55.8,36.6053367 Z" id="Shape" fill-rule="nonzero"></path>
                            <path d="M44.433293,52.8462762 L17.566707,52.8462762 C15.8575898,52.8462762 14.466707,54.2125544 14.466707,55.8914375 C14.466707,57.5703206 15.8575898,58.9365988 17.566707,58.9365988 L44.4334141,58.9365988 C46.1425312,58.9365988 47.5334141,57.5703206 47.5334141,55.8914375 C47.5334141,54.2125544 46.1424102,52.8462762 44.433293,52.8462762 Z M44.433293,56.9064516 L17.566707,56.9064516 C16.9963555,56.9064516 16.5334141,56.450748 16.5334141,55.8914375 C16.5334141,55.332127 16.9963555,54.8764234 17.566707,54.8764234 L44.4334141,54.8764234 C45.0037656,54.8764234 45.466707,55.332127 45.466707,55.8914375 C45.466707,56.450748 45.0037656,56.9064516 44.433293,56.9064516 Z" id="Shape" fill-rule="nonzero"></path>
                            <path d="M42.366707,52.8462762 C38.9380586,52.8462762 37.2,50.4558246 37.2,45.7409395 C37.2,45.1806774 36.7370586,44.7259254 36.166707,44.7259254 L25.8334141,44.7259254 C25.2630625,44.7259254 24.8001211,45.1806774 24.8001211,45.7409395 C24.8001211,50.4558246 23.0620625,52.8462762 19.6334141,52.8462762 C19.0630625,52.8462762 18.6001211,53.3010282 18.6001211,53.8612903 C18.6001211,54.4215524 19.0630625,54.8763044 19.6334141,54.8763044 L42.366707,54.8763044 C42.9370586,54.8763044 43.4,54.4215524 43.4,53.8612903 C43.4,53.3010282 42.9370586,52.8462762 42.366707,52.8462762 Z M24.6666758,52.8462762 C25.9387656,51.4617984 26.6878516,49.400129 26.8387344,46.7559536 L35.1622344,46.7559536 C35.3120273,49.400129 36.0612344,51.4617984 37.334293,52.8462762 L24.6666758,52.8462762 Z" id="Shape" fill-rule="nonzero"></path>
                            <path d="M49.3768242,29.9709294 L46.8824141,27.5206452 L48.2701484,26.1574597 C48.5274727,25.9046875 48.6307656,25.537246 48.5418828,25.1910968 C48.453,24.8449476 48.1853828,24.5708831 47.8371172,24.4673952 L37.5038242,21.4222339 C37.1390898,21.3145827 36.7454141,21.4130746 36.476707,21.6770282 C36.2070313,21.9409819 36.1078555,22.3286452 36.2173242,22.6859758 L39.3173242,32.8364738 C39.421707,33.1795302 39.7016758,33.4424133 40.0540586,33.5297238 C40.4053516,33.6150121 40.7805,33.5154496 41.0378242,33.2627964 L42.4989414,31.8264556 L44.9933516,34.2778105 C45.1866172,34.4686089 45.4501172,34.5751895 45.7239102,34.5751895 C45.9977031,34.5751895 46.2612031,34.4686089 46.4544688,34.2778105 L49.3767031,31.4061996 C49.780793,31.009377 49.780793,30.367871 49.3768242,29.9709294 Z M45.7239102,32.1249052 L43.4526758,29.8927782 C43.1891758,29.6339395 42.8440586,29.504996 42.4989414,29.504996 C42.1527344,29.504996 41.8076172,29.6348911 41.545207,29.8917077 L40.7991484,30.6245685 L38.7479414,23.9079657 L45.5855,25.9228871 L44.7856758,26.7085625 C44.5655273,26.9257681 44.4446758,27.2141069 44.4446758,27.5206452 C44.4446758,27.828254 44.5666172,28.118496 44.7877344,28.3336794 L47.1850273,30.6885645 L45.7239102,32.1249052 Z" id="Shape" fill-rule="nonzero"></path>
                            <path d="M43.4,8.18387097 L14.466707,8.18387097 C13.8963555,8.18387097 13.4334141,8.63862298 13.4334141,9.19888508 L13.4334141,14.2741935 C13.4334141,14.8344556 13.8963555,15.2892077 14.466707,15.2892077 L43.4,15.2892077 C43.9703516,15.2892077 44.433293,14.8344556 44.433293,14.2741935 L44.433293,9.19888508 C44.433293,8.63862298 43.9703516,8.18387097 43.4,8.18387097 Z M42.366707,13.2591794 L15.5,13.2591794 L15.5,10.2140181 L42.366707,10.2140181 L42.366707,13.2591794 Z" id="Shape" fill-rule="nonzero"></path>
                            <path d="M26.866707,19.349502 L18.6,19.349502 C18.0296484,19.349502 17.566707,19.804254 17.566707,20.3645161 L17.566707,24.4246915 C17.566707,24.9849536 18.0296484,25.4397056 18.6,25.4397056 L26.866707,25.4397056 C27.4370586,25.4397056 27.9,24.9849536 27.9,24.4246915 L27.9,20.3645161 C27.9,19.804254 27.4370586,19.349502 26.866707,19.349502 Z M25.833293,23.4096774 L19.633293,23.4096774 L19.633293,21.3795302 L25.833293,21.3795302 L25.833293,23.4096774 Z" id="Shape" fill-rule="nonzero"></path>
                            <path d="M43.4,8.18387097 L14.466707,8.18387097 C13.8963555,8.18387097 13.4334141,8.63862298 13.4334141,9.19888508 L13.4334141,28.4848669 C13.4334141,29.045129 13.8963555,29.499881 14.466707,29.499881 L39.0662969,29.499881 C39.3938555,29.499881 39.700707,29.3486935 39.8950625,29.0908065 C40.0903867,28.8330383 40.1503281,28.5000927 40.0562383,28.1924839 L38.7480625,23.9079657 L43.1035625,25.1920484 C43.4167109,25.2844738 43.7556523,25.2255927 44.0169727,25.0337238 C44.2793828,24.8429254 44.4334141,24.5404315 44.4334141,24.219619 L44.4334141,9.19888508 C44.433293,8.63862298 43.9703516,8.18387097 43.4,8.18387097 Z M42.366707,22.8554819 L37.5027344,21.4222339 C37.138,21.3145827 36.7443242,21.4130746 36.4756172,21.6770282 C36.2059414,21.9419335 36.1067656,22.3286452 36.2162344,22.6870464 L37.6773516,27.4699718 L15.5,27.4699718 L15.5,10.2140181 L42.366707,10.2140181 L42.366707,22.8554819 Z" id="Shape" fill-rule="nonzero"></path>
                        </g>
                    </g>
                    <g id="Q2-2019" transform="translate(848.600000, 309.000000)">
                        <circle id="Oval-3-Copy-2" fill="url(#linearGradient-2)" cx="51.6" cy="51.6" r="51.6"></circle>
                        <g id="team" transform="translate(51.600000, 51.600000) rotate(-90.000000) translate(-51.600000, -51.600000) translate(26.100000, 26.100000)" fill="#FFFFFF" fill-rule="nonzero">
                            <path d="M45.311209,42.8719746 L44.4732949,42.5359922 C48.6870703,37.8485742 51,31.8277852 51,25.5 C51,20.3232012 49.4349375,15.3421348 46.5834199,11.1548555 C46.5488555,11.0868223 46.5060234,11.0255625 46.4562188,10.9720723 C45.2070176,9.17163281 43.7199492,7.52030859 42.0134414,6.06870117 C41.6746699,5.78053125 41.1665625,5.82157031 40.8783926,6.1603418 C40.5902227,6.49911328 40.6312617,7.00741992 40.9699336,7.29549023 C42.3389648,8.46002344 43.5574863,9.76171875 44.614541,11.1704941 C42.9100254,11.8366816 40.8640488,12.4008691 38.5800059,12.8466211 C37.9494785,10.9679883 37.1745176,9.21645703 36.2634902,7.6361543 C35.0356055,5.50600781 33.6232441,3.79073438 32.0839805,2.52918164 C34.4796855,3.2140957 36.7618359,4.27533398 38.856123,5.69008594 C39.2246777,5.93881055 39.7251152,5.84208984 39.9741387,5.47353516 C40.2230625,5.10508008 40.1261426,4.60454297 39.7575879,4.35551953 C35.5402266,1.50609375 30.6099609,0 25.5,0 C18.6886113,0 12.285123,2.65239844 7.46891016,7.46891016 C2.65239844,12.285123 0,18.6888105 0,25.5 C0,31.8359531 2.31611719,37.8575391 6.53676562,42.5466504 L5.70941016,42.8706797 C5.40470508,42.980748 2.81376562,44.0141953 2.81376562,47.3085762 L2.81376562,50.1939609 C2.81376562,50.6388164 3.17415234,51 3.61900781,51 L8.25124219,51 L8.97231445,51 L9.83124609,51 L13.9512891,51 L15.4719258,51 C15.5107734,51 15.5487246,50.9963145 15.5860781,50.9909355 C15.6235312,50.9963145 15.6613828,51 15.7002305,51 L18.9767812,51 C19.4216367,51 19.7820234,50.6396133 19.7820234,50.1947578 C19.7820234,49.7499023 19.4215371,49.3895156 18.9767812,49.3895156 L16.5054727,49.3895156 L16.5054727,46.5850137 C16.5054727,43.6262168 18.8295586,42.7751543 18.9233906,42.742084 C18.9358418,42.7379004 18.9481934,42.733418 18.9605449,42.7285371 L22.8819668,41.1927598 C22.8904336,41.2019238 22.8984023,41.2114863 22.9073672,41.220252 L24.9913945,43.2500918 C25.1419043,43.3965176 25.3436133,43.4784961 25.553291,43.4784961 C25.5574746,43.4784961 25.5617578,43.4784961 25.5659414,43.4783965 C25.7802012,43.4751094 25.9845,43.3863574 26.1330176,43.2319629 L28.1340703,41.1557051 L32.0502129,42.7261465 C32.064457,42.7319238 32.0738203,42.7355098 32.0883633,42.740291 C32.1872754,42.7750547 34.5116602,43.626416 34.5116602,46.5850137 L34.5116602,49.3895156 L28.6217578,49.3895156 L22.3950762,49.3895156 L21.4935117,49.3895156 C21.0486562,49.3895156 20.6882695,49.750002 20.6882695,50.1947578 C20.6882695,50.6396133 21.0487559,51 21.4935117,51 L22.3950762,51 L28.6217578,51 L35.317002,51 L35.3171016,51 L35.3172012,51 L36.3445723,51 L37.0655449,51 L37.9246758,51 L42.0445195,51 L47.3980254,51 C47.8428809,51 48.2032676,50.6338359 48.2032676,50.1890801 L48.2032676,47.3085762 C48.2034668,44.0268457 45.6320508,42.9886172 45.311209,42.8719746 Z M42.8746641,41.8949063 L42.080877,41.5765547 L42.080877,41.1183516 C42.9581367,40.6038691 43.6323926,39.7798008 43.9527363,38.7968555 C45.1242422,38.7043184 46.0496133,37.7234648 46.0496133,36.5286504 C46.0496133,35.8180371 45.7220977,35.1829277 45.2106035,34.7647676 L45.2106035,33.3335801 C45.2106035,30.5742012 43.1399238,28.2908555 40.4711895,27.9519844 C40.5015703,27.4060254 40.5225879,26.8559824 40.532748,26.3052422 L49.3745742,26.3052422 C49.1810332,32.134084 46.8914121,37.639793 42.8746641,41.8949063 Z M39.9674648,40.0821152 L39.2330449,40.0821152 C37.810125,40.0821152 36.6525645,38.9245547 36.6525645,37.501834 L36.6525645,35.3711895 C37.7015508,35.2573359 39.5595645,34.8906738 40.9910508,33.6951621 C41.3116934,34.2451055 41.8078477,34.839873 42.5479453,35.1872109 L42.5479453,37.5017344 C42.5478457,38.9245547 41.3902852,40.0821152 39.9674648,40.0821152 Z M40.4704922,41.6613223 L40.4704922,42.1077715 L39.5732109,43.0387207 L38.7301172,42.2176406 L38.7301172,41.6612227 C38.8951699,41.6810449 39.0628125,41.6925 39.2331445,41.6925 L39.9675645,41.6925 C40.1378965,41.6925996 40.3053398,41.6811445 40.4704922,41.6613223 Z M35.8499121,33.813 C35.8490156,33.813 35.8481191,33.813 35.8472227,33.813 C35.8195312,33.813 35.7920391,33.8144941 35.7650449,33.8171836 C35.7563789,33.8180801 35.7479121,33.819873 35.7392461,33.8210684 C35.7211172,33.823459 35.7029883,33.8256504 35.6852578,33.8293359 C35.6731055,33.8317266 35.6614512,33.8354121 35.649498,33.8385 C35.6356523,33.8419863 35.621707,33.8449746 35.6082598,33.8491582 C35.5994941,33.8518477 35.5912266,33.8555332 35.5825605,33.8585215 L35.5825605,33.3336797 C35.5825605,31.229332 37.2945469,29.5174453 39.3988945,29.5174453 L39.7839844,29.5174453 C41.8882324,29.5174453 43.5999199,31.229332 43.5999199,33.3336797 L43.5999199,33.8519473 C43.5847793,33.8470664 43.5694395,33.8432813 43.5539004,33.8393965 C43.5465293,33.8373047 43.5391582,33.8349141 43.5316875,33.8330215 C42.4090898,33.5777227 42.0419297,32.079498 42.0392402,32.0681426 C41.9694141,31.7595527 41.7252715,31.5204902 41.4151875,31.4571387 C41.1051035,31.3935879 40.7868516,31.5177012 40.6013789,31.7740957 C39.1431973,33.7898906 35.8925449,33.813 35.8499121,33.813 Z M44.1583301,37.0713223 L44.1583301,35.9861777 C44.3278652,36.1072031 44.4390293,36.305127 44.4390293,36.5288496 C44.4390293,36.7525723 44.3278652,36.9502969 44.1583301,37.0713223 Z M45.5596348,12.5256797 C47.8921875,16.1291484 49.2278496,20.3240977 49.374375,24.6946582 L40.5323496,24.6946582 C40.4670059,21.0699727 39.9604922,17.5739824 39.057334,14.390168 C41.533125,13.8983965 43.7405684,13.2699609 45.5596348,12.5256797 Z M38.921666,24.6948574 L30.6798867,24.6948574 C30.6789902,24.6947578 30.6781934,24.6948574 30.6773965,24.6948574 C29.5788047,23.4804199 28.0344609,22.6780664 26.3052422,22.5445898 L26.3052422,15.6197461 C30.2568457,15.5804004 34.0701914,15.2517891 37.467668,14.6807285 C38.3566816,17.7598535 38.855625,21.1599199 38.921666,24.6948574 Z M31.8182227,33.1036816 C31.8182227,33.5773242 31.4982773,33.9766582 31.0632832,34.0994766 L31.0632832,32.1075879 C31.4982773,32.2306055 31.8182227,32.6300391 31.8182227,33.1036816 Z M26.3051426,1.65520898 C29.5097754,1.9974668 32.524752,4.37514258 34.8681621,8.44040039 C35.6905371,9.86690625 36.396668,11.4429258 36.9787852,13.1334961 C33.7321172,13.6651113 30.0885059,13.9711113 26.3051426,14.0090625 L26.3051426,1.65520898 Z M25.7945449,24.1333594 C28.5374883,24.1333594 30.7689375,26.3650078 30.7689375,29.1080508 L30.7689375,30.0920918 C30.7635586,30.0878086 30.7578809,30.0840234 30.7524023,30.0797402 C30.740748,30.0705762 30.7288945,30.0616113 30.7166426,30.0531445 C30.7071797,30.0465703 30.697418,30.0404941 30.6876563,30.0343184 C30.6756035,30.0266484 30.6636504,30.0190781 30.6510996,30.0121055 C30.6396445,30.0056309 30.627791,29.9999531 30.6160371,29.9940762 C30.6047813,29.988498 30.593625,29.9828203 30.5820703,29.9776406 C30.5679258,29.9713652 30.5532832,29.9661855 30.5388398,29.960707 C30.5287793,29.9569219 30.5188184,29.9530371 30.5086582,29.9496504 C30.4924219,29.9442715 30.4756875,29.9399883 30.4590527,29.9357051 C30.4516816,29.9336133 30.4444102,29.931123 30.4368398,29.9293301 C28.9071387,29.5814941 28.4225391,27.5870156 28.4184551,27.5696836 C28.3486289,27.2610937 28.1044863,27.0220312 27.7944023,26.9586797 C27.484418,26.8949297 27.1660664,27.0192422 26.9805938,27.2756367 C25.0948887,29.8826133 20.9293242,29.9093086 20.8743398,29.9093086 C20.8742402,29.9093086 20.8741406,29.9093086 20.8741406,29.9093086 C20.8730449,29.9093086 20.872248,29.9093086 20.871252,29.9093086 C20.8435605,29.9093086 20.8160684,29.9107031 20.7890742,29.9133926 C20.7806074,29.9143887 20.7724395,29.916082 20.7639727,29.9172773 C20.7457441,29.9197676 20.7272168,29.921959 20.7092871,29.9255449 C20.697832,29.9279355 20.6866758,29.9315215 20.6752207,29.9343105 C20.660877,29.9378965 20.6462344,29.941084 20.6322891,29.9453672 C20.6192402,29.9494512 20.6066895,29.9547305 20.5939395,29.9594121 C20.5822852,29.9636953 20.5701328,29.9674805 20.5585781,29.9722617 C20.5438359,29.9785371 20.529791,29.9859082 20.5157461,29.9927813 C20.506582,29.9972637 20.4973184,30.0011484 20.4883535,30.0060293 C20.4738105,30.0137988 20.4602637,30.0227637 20.4463184,30.0313301 C20.4383496,30.0364102 20.4299824,30.0408926 20.4220137,30.0461719 C20.4090645,30.0549375 20.3968125,30.0646992 20.3842617,30.0742617 C20.3761934,30.0803379 20.3678262,30.085916 20.359957,30.0923906 C20.3525859,30.0984668 20.3457129,30.1053398 20.3384414,30.1117148 L20.3384414,29.1079512 C20.3384414,26.3649082 22.5698906,24.1333594 25.312834,24.1333594 L25.7945449,24.1333594 Z M12.078334,24.6947578 C12.144375,21.1592227 12.6435176,17.758459 13.5327305,14.6790352 C16.9349883,15.2508926 20.752418,15.5802012 24.6947578,15.6198457 L24.6947578,22.5528574 C23.0066777,22.7109375 21.5018789,23.5080117 20.4255996,24.7001367 C20.3963145,24.6969492 20.3665313,24.6948574 20.3363496,24.6948574 L12.078334,24.6948574 L12.078334,24.6947578 Z M20.0660098,32.0993203 L20.0660098,34.108043 C19.6144805,33.9963809 19.278498,33.5891777 19.278498,33.1036816 C19.2783984,32.6182852 19.6144805,32.211082 20.0660098,32.0993203 Z M24.6947578,1.65520898 L24.6947578,14.0090625 C20.9203594,13.9708125 17.2738594,13.6636172 14.0220117,13.1310059 C14.6040293,11.4414316 15.3098613,9.8664082 16.1318379,8.44040039 C18.475248,4.37514258 21.4902246,1.9974668 24.6947578,1.65520898 Z M18.9071543,2.53625391 C17.371377,3.79730859 15.9620039,5.50989258 14.7364102,7.63605469 C13.8256816,9.21595898 13.0510195,10.9666934 12.4205918,12.8448281 C10.1394375,12.3996738 8.09674805,11.8367812 6.39541992,11.1731836 C9.47952539,7.07077148 13.852377,3.98975391 18.9071543,2.53625391 Z M5.44763672,12.5294648 C7.26212109,13.270957 9.46996289,13.897002 11.9433633,14.3882754 C11.0396074,17.5724883 10.5330938,21.0692754 10.4675508,24.6947578 L1.625625,24.6947578 C1.77454102,20.2216992 3.15861328,16.056334 5.44763672,12.5294648 Z M10.6365879,41.6614219 C10.8016406,41.6812441 10.9692832,41.6925996 11.1396152,41.6925996 L11.8741348,41.6925996 C12.0442676,41.6925996 12.2119102,41.6812441 12.3768633,41.6613223 L12.3768633,42.1076719 L11.4797813,43.0386211 L10.6365879,42.217541 L10.6365879,41.6614219 Z M11.8741348,40.0821152 L11.1396152,40.0821152 C9.71669531,40.0821152 8.55913477,38.9245547 8.55913477,37.5017344 L8.55913477,35.3720859 C9.60792187,35.2586309 11.4652383,34.8913711 12.8976211,33.6951621 C13.2183633,34.2452051 13.714418,34.8400723 14.454416,35.1874102 L14.454416,37.501834 C14.4543164,38.9245547 13.2968555,40.0821152 11.8741348,40.0821152 Z M13.9461094,32.068043 C13.8762832,31.7594531 13.6321406,31.5203906 13.3220566,31.4570391 C13.0119727,31.3934883 12.6936211,31.5176016 12.5083477,31.7739961 C11.0490703,33.7909863 7.79582813,33.8130996 7.75658203,33.8130996 C7.75558594,33.8130996 7.75478906,33.8130996 7.75389258,33.8130996 C7.72620117,33.8130996 7.69870898,33.8144941 7.67171484,33.8171836 C7.66324805,33.8181797 7.65508008,33.819873 7.64661328,33.8210684 C7.62838477,33.823459 7.60985742,33.82575 7.59192773,33.8293359 C7.58047266,33.8317266 7.56931641,33.8353125 7.55786133,33.8381016 C7.54351758,33.8416875 7.52897461,33.844875 7.51492969,33.8491582 C7.50626367,33.8518477 7.4980957,33.8555332 7.4895293,33.8585215 L7.4895293,33.3336797 C7.4895293,31.229332 9.20141602,29.5173457 11.3057637,29.5173457 L11.6909531,29.5173457 C13.7952012,29.5173457 15.5068887,31.229332 15.5068887,33.3336797 L15.5068887,33.8520469 L15.5066895,33.8520469 C15.49125,33.8469668 15.4752129,33.8431816 15.4594746,33.8390977 C15.4524023,33.8373047 15.4455293,33.8348145 15.4383574,33.8331211 C14.315959,33.5778223 13.9487988,32.0792988 13.9461094,32.068043 Z M1.62552539,26.3052422 L10.4673516,26.3052422 C10.4774121,26.8598672 10.4988281,27.4137949 10.5294082,27.9632402 C7.90360547,28.3408594 5.87874609,30.6047812 5.87874609,33.3335801 L5.87874609,34.7584922 C5.36227148,35.1764531 5.03107031,35.8143516 5.03107031,36.5286504 C5.03107031,37.7323301 5.97068555,38.7183633 7.15474219,38.79825 C7.47508594,39.7805977 8.14904297,40.6039688 9.02600391,41.1183516 L9.02600391,41.571873 L8.14635352,41.9163223 C4.11605859,37.6579219 1.81916602,32.1466348 1.62552539,26.3052422 Z M6.94845117,35.968248 L6.94845117,37.0890527 C6.76417383,36.9703184 6.64155469,36.7637285 6.64155469,36.5288496 C6.64155469,36.2937715 6.76417383,36.0871816 6.94845117,35.968248 Z M14.8947891,46.5851133 L14.8947891,49.3895156 L13.9510898,49.3895156 L9.83114648,49.3895156 L8.97221484,49.3895156 L8.25124219,49.3895156 L4.42434961,49.3895156 L4.42434961,47.3085762 C4.42434961,45.0634805 6.1794668,44.412832 6.24769922,44.388627 C6.26015039,44.3844434 6.27260156,44.3799609 6.28485352,44.3750801 L9.32204297,43.1856445 L10.9359141,44.7574805 C11.0863242,44.9040059 11.2879336,44.9858848 11.4977109,44.9858848 C11.5018945,44.9858848 11.5061777,44.9858848 11.5104609,44.9857852 C11.7247207,44.982498 11.9289199,44.8937461 12.0774375,44.7393516 L13.6018594,43.1573555 L15.4861699,43.9128926 C15.1288711,44.644125 14.8947891,45.529752 14.8947891,46.5851133 Z M22.6641211,39.5485078 L18.390082,41.2222441 C17.8458164,41.4095098 17.0925703,41.8415156 16.4243906,42.5539219 L13.987248,41.5765547 L13.987248,41.1185508 C14.864707,40.6039687 15.5388633,39.7799004 15.859207,38.7968555 C17.0308125,38.7043184 17.9562832,37.7234648 17.9562832,36.5286504 C17.9562832,35.8180371 17.628668,35.1829277 17.1171738,34.7647676 L17.1171738,33.3335801 C17.1171738,30.4928203 14.9227793,28.1564824 12.1403906,27.9268828 C12.1097109,27.3896895 12.0884941,26.8478145 12.0782344,26.3051426 L19.3556953,26.3051426 C18.9536719,27.1561055 18.7277578,28.1058809 18.7277578,29.1078516 L18.7277578,30.9868828 C18.0845801,31.4700879 17.6677148,32.2389727 17.6677148,33.1036816 C17.6677148,34.5490137 18.8328457,35.7267949 20.2731973,35.7489082 C20.6511152,37.0253027 21.5216016,38.0917207 22.6639219,38.7271289 L22.6639219,39.5485078 L22.6641211,39.5485078 Z M16.0649004,37.0714219 L16.0649004,35.9858789 C16.2345352,36.1070039 16.3457988,36.3049277 16.3457988,36.52875 C16.3457988,36.7525723 16.2345352,36.9503965 16.0649004,37.0714219 Z M26.8547871,40.1105039 C26.8547871,40.1115996 26.8547871,40.1126953 26.8547871,40.1134922 L26.8547871,40.1623008 L25.5353613,41.5314316 L24.2746055,40.3034473 L24.2746055,39.2902207 C24.5450449,39.3353437 24.8223574,39.3599473 25.1055469,39.3599473 L26.0241445,39.3599473 C26.3071348,39.3599473 26.5843477,39.3353437 26.8547871,39.2904199 L26.8547871,40.1105039 Z M26.0241445,37.7495625 L25.1055469,37.7495625 C23.2147617,37.7495625 21.6764941,36.2113945 21.6764941,34.3206094 L21.6764941,31.4775586 C22.9616543,31.3592227 25.5028887,30.9124746 27.3591094,29.2461094 C27.750873,29.987502 28.4075977,30.8482266 29.4528984,31.2946758 L29.4528984,34.3205098 C29.4527988,36.2113945 27.9147305,37.7495625 26.0241445,37.7495625 Z M34.5977227,42.5594004 C33.9296426,41.8452012 33.1755,41.4117012 32.6300391,41.2234395 L28.4651719,39.5530898 L28.4651719,38.7271289 C29.607791,38.0916211 30.4780781,37.0249043 30.8558965,35.7481113 C32.2810078,35.708666 33.4285078,34.537957 33.4285078,33.1037812 C33.4285078,32.2440527 33.016125,31.4790527 32.3792227,30.9953496 L32.3792227,29.1079512 C32.3792227,28.1060801 32.1534082,27.1562051 31.7512852,26.3052422 L38.9214668,26.3052422 C38.9110078,26.8501055 38.8896914,27.3941719 38.8586133,27.9339551 C36.1187578,28.2057891 33.9717773,30.5235996 33.9717773,33.3335801 L33.9717773,34.7586914 C33.4554023,35.1765527 33.1243008,35.8144512 33.1243008,36.52875 C33.1243008,37.7325293 34.063916,38.7185625 35.2479727,38.7983496 C35.5683164,39.7806973 36.242373,40.6040684 37.119334,41.1184512 L37.119334,41.5719727 L34.5977227,42.5594004 Z M35.0420801,35.968248 L35.0420801,37.0890527 C34.8577031,36.9703184 34.7351836,36.7637285 34.7351836,36.5288496 C34.7351836,36.2937715 34.8578027,36.087082 35.0420801,35.968248 Z M46.593082,49.3895156 L42.0447187,49.3895156 L37.924875,49.3895156 L37.0657441,49.3895156 L36.3447715,49.3895156 L36.1224434,49.3895156 L36.1224434,46.5850137 C36.1224434,45.5339355 35.8904531,44.6512969 35.5354453,43.9218574 L37.4156719,43.1855449 L39.0293437,44.7573809 C39.1797539,44.9039062 39.3813633,44.9858848 39.5912402,44.9858848 C39.5954238,44.9858848 39.599707,44.9858848 39.6038906,44.9857852 C39.8181504,44.982498 40.0223496,44.8937461 40.1709668,44.7393516 L41.6954883,43.1573555 L44.7262031,44.3725898 C44.7403477,44.3783672 44.7482168,44.3813555 44.7628594,44.3863359 C44.8375664,44.412832 46.593082,45.0635801 46.593082,47.3086758 L46.593082,49.3895156 Z" id="Shape"></path>
                        </g>
                    </g>
                    <path d="M949.2,362.4 L1134,362.4" id="Line-6-Copy-3" stroke="url(#linearGradient-1)" stroke-width="1.2" stroke-linecap="square"></path>
                    <g id="Q3-2019" transform="translate(1128.600000, 309.000000)">
                        <circle id="Oval-3-Copy-2" fill="url(#linearGradient-2)" cx="51.6" cy="51.6" r="51.6"></circle>
                        <g id="planning" transform="translate(51.600000, 51.600000) rotate(-90.000000) translate(-51.600000, -51.600000) translate(26.600000, 26.600000)" fill="#FFFFFF">
                            <path d="M50,0 L0,0 L0,33.8709677 L14.9146295,33.8709677 L8.87096774,48.2240738 L8.87096774,50 L15.0619014,50 L21.5135143,33.8709677 L21.7741935,33.8709677 L21.7741935,46.7741935 L28.2258065,46.7741935 L28.2258065,33.8709677 L28.4864857,33.8709677 L34.9380986,50 L41.1290323,50 L41.1290323,48.2240738 L35.0853705,33.8709677 L50,33.8709677 L50,0 Z M48.3870968,1.61290323 L48.3870968,27.4193548 L1.61290323,27.4193548 L1.61290323,1.61290323 L48.3870968,1.61290323 Z M13.9703567,48.3870968 L10.5523879,48.3870968 L16.6645665,33.8709677 L19.776572,33.8709677 L13.9703567,48.3870968 Z M26.6129032,45.1612903 L23.3870968,45.1612903 L23.3870968,33.8709677 L26.6129032,33.8709677 L26.6129032,45.1612903 Z M39.4476121,48.3870968 L36.0296433,48.3870968 L30.223428,33.8709677 L33.3354335,33.8709677 L39.4476121,48.3870968 Z M1.61290323,32.2580645 L1.61290323,29.0322581 L48.3870968,29.0322581 L48.3870968,32.2580645 L1.61290323,32.2580645 Z" id="Shape" fill-rule="nonzero"></path>
                            <path d="M29.0322581,16.9354839 C29.0322581,21.8265656 33.0121441,25.8064516 37.9032258,25.8064516 C42.7943076,25.8064516 46.7741935,21.8265656 46.7741935,16.9354839 C46.7741935,12.0444021 42.7943076,8.06451613 37.9032258,8.06451613 C33.0121441,8.06451613 29.0322581,12.0444021 29.0322581,16.9354839 Z M30.6928081,17.7419355 L37.0967742,17.7419355 L37.0967742,24.1459016 C33.7386593,23.7726027 31.066107,21.1008379 30.6928081,17.7419355 Z M45.1612903,16.9354839 C45.1612903,20.6653226 42.3331968,23.7434633 38.7096774,24.1459016 L38.7096774,9.72506613 C42.3331968,10.1275044 45.1612903,13.2056452 45.1612903,16.9354839 Z M37.0967742,9.72506613 L37.0967742,16.1290323 L30.6928081,16.1290323 C31.066107,12.7701298 33.7386593,10.098365 37.0967742,9.72506613 Z" id="Shape" fill-rule="nonzero"></path>
                            <polygon id="Path" points="3.22580645 24.1935484 4.83870968 24.1935484 4.83870968 25.8064516 3.22580645 25.8064516"></polygon>
                            <polygon id="Path" points="6.4516129 24.1935484 19.3548387 24.1935484 19.3548387 25.8064516 6.4516129 25.8064516"></polygon>
                            <polygon id="Path" points="3.22580645 20.9677419 19.3548387 20.9677419 19.3548387 22.5806452 3.22580645 22.5806452"></polygon>
                            <polygon id="Path" points="7.61290323 9.61290323 9.22580645 9.61290323 9.22580645 16.8709677 10.8387097 16.8709677 10.8387097 9.61290323 12.4516129 9.61290323 12.4516129 15.2580645 14.0645161 15.2580645 14.0645161 9.61290323 15.6774194 9.61290323 15.6774194 12.8387097 17.2903226 12.8387097 17.2903226 8 6 8 6 15.2580645 7.61290323 15.2580645"></polygon>
                        </g>
                    </g>
                    <path d="M1229.2,362.4 L1414,362.4" id="Line-6-Copy-4" stroke="url(#linearGradient-1)" stroke-width="1.2" stroke-linecap="square"></path>
                    <g id="Q4-2019" transform="translate(1408.600000, 309.000000)">
                        <circle id="Oval-3-Copy-2" fill="url(#linearGradient-2)" cx="51.6" cy="51.6" r="51.6"></circle>
                        <g id="startup" transform="translate(51.600000, 51.600000) rotate(-90.000000) translate(-51.600000, -51.600000) translate(26.100000, 26.100000)" fill="#FFFFFF">
                            <path d="M26.7612539,24.1927895 C26.3717812,23.804076 25.7412539,23.804076 25.3517813,24.1927895 C24.9633047,24.5805088 24.9633047,25.209807 25.3517813,25.5985205 C25.7412539,25.9862398 26.3717812,25.9862398 26.7612539,25.5985205 C27.1497305,25.209807 27.1497305,24.5805088 26.7612539,24.1927895 Z" id="Path"></path>
                            <path d="M39.4386387,11.5391228 C37.4922715,9.59664912 34.3414277,9.59654971 32.3949609,11.5391228 C30.4536738,13.4766257 30.4535742,16.630076 32.3952598,18.5691696 C34.3372441,20.5061754 37.4968535,20.5069708 39.4386387,18.5689708 C41.3848066,16.6265965 41.3852051,13.4817953 39.4386387,11.5391228 Z M38.0299629,17.1629415 C36.8652305,18.3255029 34.9692656,18.3255029 33.8039355,17.1631404 C32.6390039,15.9997836 32.6389043,14.1075146 33.8037363,12.9450526 C34.971457,11.7796082 36.862043,11.7794094 38.0299629,12.9450526 C39.1976836,14.1103977 39.1978828,15.9973977 38.0299629,17.1629415 Z" id="Shape" fill-rule="nonzero"></path>
                            <path d="M50.7081445,0.291187135 C50.5125117,0.0960350877 50.2455586,-0.00974269006 49.9680469,0.000695906433 C49.7428301,0.00874853801 44.3803594,0.223883041 38.0058574,2.47255556 C32.8978887,4.27256725 28.6402852,6.8497076 25.3512832,10.1323977 C24.6142734,10.8679708 23.8970859,11.6479825 23.210877,12.4583158 C19.9588301,10.5477544 17.3528496,11.1468304 15.7054102,12.0267544 C11.9121855,14.0528363 9.56429297,19.554076 9.56429297,23.4889298 C9.5645918,23.8909649 9.80733984,24.2535322 10.1794805,24.4073275 C10.3026973,24.4583275 10.4321895,24.4830819 10.5604863,24.4830819 C10.8197695,24.4830819 11.0744707,24.3819766 11.2650234,24.1918947 C13.2654785,22.1953392 15.7329023,22.3202047 16.5389414,22.4259825 L16.8877734,22.7741345 C16.2012656,24.4045439 15.6482344,26.025807 15.242625,27.6026316 C15.0961992,28.1732749 15.1456055,28.7771228 15.363252,29.3294737 C14.4042129,29.7705789 13.4789414,30.418269 12.6733008,31.2223392 C10.1092559,33.7814854 9.58859766,40.0181988 9.56767969,40.2824444 C9.54476953,40.5724386 9.65015625,40.8579591 9.85624805,41.0636491 C10.0438125,41.2507485 10.2975176,41.3548363 10.5604863,41.3548363 C10.586584,41.3548363 10.6127813,41.3538421 10.6389785,41.3517544 C10.9037402,41.3309766 17.152834,40.8113333 19.7168789,38.2522865 C20.5222207,37.4485146 21.1710762,36.5251462 21.613043,35.5681754 C22.1989453,35.7981228 22.8019805,35.8264561 23.3442539,35.6877719 C24.9234609,35.2830526 26.5476914,34.7312982 28.1814844,34.0460292 L28.5303164,34.3941813 C28.6362012,35.1987485 28.7613105,37.6613626 26.7609551,39.6577193 C26.4761719,39.9420468 26.3909063,40.3696316 26.5451016,40.7410468 C26.6991973,41.1125614 27.062373,41.3547368 27.465293,41.3547368 C31.407832,41.3547368 36.9197168,39.0114211 38.9497559,35.2255906 C39.8313984,33.5815614 40.4316445,30.9806608 38.5173516,27.7348538 C39.3288691,27.0502807 40.1105039,26.3344912 40.8478125,25.5986199 C44.1369141,22.3159298 46.7189883,18.0666257 48.5225156,12.9690117 C50.7756797,6.60663743 50.9911348,1.25452047 50.9992031,1.02984211 C51.0091641,0.753964912 50.9036777,0.486438596 50.7081445,0.291187135 Z M11.7913594,21.3506082 C12.4101328,18.3618889 14.2073848,15.0822807 16.6458223,13.7797427 C18.275332,12.909462 20.0564473,12.9947602 21.9502207,14.0293743 C20.3368477,16.147117 18.934248,18.4286959 17.7651328,20.8380234 C17.750291,20.8288772 17.5709941,20.6039006 17.2379004,20.5289415 C17.1009375,20.4980234 14.465373,19.9322515 11.7913594,21.3506082 Z M18.3082031,36.8462573 C16.9385742,38.2132164 13.7256738,38.9341754 11.6949375,39.2285439 C11.9899805,37.2016667 12.7124473,33.9951287 14.0819766,32.628269 C14.8489688,31.8627719 15.7382812,31.282386 16.6321758,30.9555088 L19.9842305,34.3010292 C19.6567148,35.1931813 19.0752949,36.0807602 18.3082031,36.8462573 Z M22.8493945,33.7617018 C22.561125,33.8353684 22.2272344,33.7272047 21.9790078,33.4798596 C20.6903613,32.1937251 20.1862383,31.6905848 20.0280586,31.5328129 C19.7379961,31.2433158 19.0266855,30.5333918 17.4555469,28.9652164 C17.2071211,28.7167778 17.0987461,28.3836374 17.1723574,28.0964269 C17.4914063,26.8563216 17.9086699,25.5840058 18.4160801,24.299462 L26.6532773,32.5206023 C25.3660254,33.0271228 24.0914238,33.4434737 22.8493945,33.7617018 Z M37.193543,34.2874094 C35.8884609,36.7209942 32.6025469,38.5148421 29.6080898,39.1323099 C30.5628457,37.3391579 30.7733203,35.0564854 30.4244883,33.6723275 C30.3435059,33.3508187 30.1333301,33.1891696 30.1215762,33.1701813 C32.5354102,32.003345 34.8213457,30.6034795 36.9434238,28.9932515 C37.9800586,30.8835322 38.0654238,32.6613743 37.193543,34.2874094 Z M39.4393359,24.1926901 C38.5417559,25.0884211 37.5752461,25.9538304 36.5666016,26.7647602 C34.1419102,28.7132982 31.4731758,30.3637895 28.6259414,31.6776608 L19.260668,22.3308421 C20.5771055,19.4889591 22.2308203,16.8254269 24.1829648,14.4057602 C24.9961758,13.398386 25.8631758,12.4336608 26.7603574,11.5383275 C29.7112852,8.59305263 33.51975,6.24904094 38.0830547,4.56176608 L46.4295234,12.8919649 C44.7391523,17.4462749 42.3905625,21.2473158 39.4393359,24.1926901 Z M47.1462129,10.7951988 L40.183916,3.84647368 C43.9771406,2.67059064 47.2770996,2.2302807 48.9242402,2.0720117 C48.7655625,3.71623977 48.324293,7.00976608 47.1462129,10.7951988 Z" id="Shape" fill-rule="nonzero"></path>
                            <path d="M23.9432051,41.0633509 C23.5540313,40.6751345 22.9233047,40.6753333 22.5344297,41.0635497 L19.7174766,43.8760058 C19.3286016,44.2643216 19.3287012,44.8938187 19.7176758,45.2819357 C20.1068496,45.6700526 20.7375762,45.6700526 21.1264512,45.2817368 L23.9434043,42.4692807 C24.3322793,42.0809649 24.3321797,41.4514678 23.9432051,41.0633509 Z" id="Path"></path>
                            <path d="M9.85674609,27.0042515 C9.46787109,26.6159357 8.83724414,26.6159357 8.44807031,27.0040526 L5.63012109,29.8155146 C5.24104688,30.2036316 5.24094727,30.8331287 5.62982227,31.2214444 C6.01859766,31.6095614 6.64922461,31.6099591 7.03849805,31.2216433 L9.85644727,28.4101813 C10.2455215,28.0220643 10.2456211,27.3925673 9.85674609,27.0042515 Z" id="Path"></path>
                            <path d="M16.9000254,42.4701754 C16.51125,42.0819591 15.8804238,42.0819591 15.4913496,42.470076 L8.74381055,49.2034678 C8.35473633,49.5916842 8.35473633,50.2211813 8.74371094,50.6093977 C9.13248633,50.997614 9.7633125,50.9978129 10.1523867,50.6094971 L16.8999258,43.8761053 C17.289,43.4878889 17.289,42.8583918 16.9000254,42.4701754 Z" id="Path"></path>
                            <path d="M8.93127539,42.4701754 C8.54240039,42.0819591 7.91157422,42.0819591 7.52259961,42.470076 L0.775060547,49.2034678 C0.385986328,49.5916842 0.385986328,50.2211813 0.774960938,50.6093977 C1.16373633,50.997614 1.7945625,50.9978129 2.18363672,50.6094971 L8.93117578,43.8761053 C9.32025,43.4878889 9.32025,42.8583918 8.93127539,42.4701754 Z" id="Path"></path>
                            <path d="M8.44707422,34.0336023 C8.05819922,33.6454854 7.42737305,33.6454854 7.03839844,34.0337018 L0.291855469,40.7680877 C-0.0971191406,41.1564035 -0.0971191406,41.7858012 0.291955078,42.174117 C0.680929688,42.5623333 1.31165625,42.5623333 1.70063086,42.1740175 L8.44717383,35.4396316 C8.83614844,35.0513158 8.83614844,34.4219181 8.44707422,34.0336023 Z" id="Path"></path>
                            <path d="M30.9867832,19.9744035 C30.597709,19.5861871 29.9671816,19.5861871 29.5780078,19.9744035 L28.1695313,21.3801345 C27.7805566,21.7683509 27.7805566,22.397848 28.1695313,22.7861637 C28.5586055,23.1743801 29.1892324,23.1743801 29.5783066,22.7861637 L30.9867832,21.3804327 C31.3757578,20.9922164 31.3757578,20.3627193 30.9867832,19.9744035 Z" id="Path"></path>
                        </g>
                    </g>
                    <circle id="Pointer" fill="url(#radialGradient-3)" cx="538.6" cy="359.6" r="12.6"></circle>
                    <g id="Q2-text" transform="translate(29.000000, 0.000000)" fill="#000000" font-family="Raleway-Regular, Raleway" font-size="18" font-weight="normal" letter-spacing="-0.7499999">
                        <text id="Q3-2018---Concept-an" transform="translate(10.800000, 144.722431) rotate(-90.000000) translate(-10.800000, -144.722431) ">
                            <tspan x="-130.821002" y="151.222431">Q3 2018 - Concept and team building </tspan>
                        </text>
                    </g>
                    <text id="Q4-2018-Seed-investm" transform="translate(334.200000, 594.412854) rotate(-90.000000) translate(-334.200000, -594.412854) " font-family="Raleway-Regular, Raleway" font-size="18" font-weight="normal" letter-spacing="-0.75" fill="#000000">
                        <tspan x="177.693" y="590.412854">Q4 2018 Seed investment - Research and </tspan>
                        <tspan x="275.616" y="611.412854">documentation</tspan>
                    </text>
                    <text id="Q1-2019-MVP-Alpha,-B" transform="translate(617.400000, 160.000000) rotate(-90.000000) translate(-617.400000, -160.000000) " font-family="Raleway-Medium, Raleway" font-size="18" font-weight="400" letter-spacing="-0.75" fill="#000000">
                        <tspan x="479.94" y="156">Q1 2019</tspan>
                        <tspan x="540.156" y="156" font-family="Raleway-Regular, Raleway" font-weight="normal"> MVP Alpha, Basic Index and </tspan>
                        <tspan x="564.09" y="177" font-family="Raleway-Regular, Raleway" font-weight="normal">Video reviews</tspan>
                    </text>
                    <text id="Q2-2019-Second-priva" transform="translate(900.600000, 594.912854) rotate(-90.000000) translate(-900.600000, -594.912854) " font-family="Raleway-Regular, Raleway" font-size="18" font-weight="normal" letter-spacing="-0.75" fill="#000000">
                        <tspan x="743.721" y="590.912854">Q2 2019 Second private seed Investment, </tspan>
                        <tspan x="838.572" y="611.912854">team expansion.</tspan>
                    </text>
                    <text id="Q3-2019-MVP-Beta,-Pr" transform="translate(1180.600000, 171.500000) rotate(-90.000000) translate(-1180.600000, -171.500000) " font-family="Raleway-Regular, Raleway" font-size="18" font-weight="normal" letter-spacing="-0.75" fill="#000000">
                        <tspan x="1080.238" y="167.5">Q3 2019 MVP Beta, Project </tspan>
                        <tspan x="1128.775" y="188.5">Creator Alpha</tspan>
                    </text>
                    <text id="Q4-2019-Index-V1,-Pr" transform="translate(1460.600000, 583.412854) rotate(-90.000000) translate(-1460.600000, -583.412854) " font-family="Raleway-Regular, Raleway" font-size="18" font-weight="normal" letter-spacing="-0.75" fill="#000000">
                        <tspan x="1315.619" y="579.412854">Q4 2019 Index V1, Project Creator Beta, </tspan>
                        <tspan x="1371.428" y="600.412854">Premium Service Alpha</tspan>
                    </text>
                </g>
            </g>
        </g>
    </g>
</svg>